<?xml version="1.0" encoding="UTF-8" standalone="no"?>
<!DOCTYPE svg PUBLIC "-//W3C//DTD SVG 1.1//EN"
 "http://www.w3.org/Graphics/SVG/1.1/DTD/svg11.dtd">
<!-- Generated by graphviz version 2.43.0 (0)
 -->
<!-- Title: snakemake_dag Pages: 1 -->
<svg width="694pt" height="514pt"
 viewBox="0.00 0.00 693.50 514.00" xmlns="http://www.w3.org/2000/svg" xmlns:xlink="http://www.w3.org/1999/xlink">
<g id="graph0" class="graph" transform="scale(1 1) rotate(0) translate(4 510)">
<title>snakemake_dag</title>
<polygon fill="white" stroke="transparent" points="-4,4 -4,-510 689.5,-510 689.5,4 -4,4"/>
<!-- 0 -->
<g id="node1" class="node">
<title>0</title>
<path fill="none" stroke="#d8b456" stroke-width="2" d="M363,-36C363,-36 333,-36 333,-36 327,-36 321,-30 321,-24 321,-24 321,-12 321,-12 321,-6 327,0 333,0 333,0 363,0 363,0 369,0 375,-6 375,-12 375,-12 375,-24 375,-24 375,-30 369,-36 363,-36"/>
<text text-anchor="middle" x="348" y="-15.5" font-family="sans" font-size="10.00">all</text>
</g>
<!-- 1 -->
<g id="node2" class="node">
<title>1</title>
<path fill="none" stroke="#56d89a" stroke-width="2" d="M68,-108C68,-108 12,-108 12,-108 6,-108 0,-102 0,-96 0,-96 0,-84 0,-84 0,-78 6,-72 12,-72 12,-72 68,-72 68,-72 74,-72 80,-78 80,-84 80,-84 80,-96 80,-96 80,-102 74,-108 68,-108"/>
<text text-anchor="middle" x="40" y="-87.5" font-family="sans" font-size="10.00">bladeloading</text>
</g>
<!-- 1&#45;&gt;0 -->
<g id="edge1" class="edge">
<title>1&#45;&gt;0</title>
<path fill="none" stroke="grey" stroke-width="2" d="M80.24,-74.57C83.19,-73.65 86.13,-72.79 89,-72 166.89,-50.62 260.09,-33.59 310.74,-25.03"/>
<polygon fill="grey" stroke="grey" stroke-width="2" points="311.59,-28.44 320.88,-23.33 310.44,-21.53 311.59,-28.44"/>
</g>
<!-- 2 -->
<g id="node3" class="node">
<title>2</title>
<path fill="none" stroke="#56d8c9" stroke-width="2" d="M145,-180C145,-180 101,-180 101,-180 95,-180 89,-174 89,-168 89,-168 89,-156 89,-156 89,-150 95,-144 101,-144 101,-144 145,-144 145,-144 151,-144 157,-150 157,-156 157,-156 157,-168 157,-168 157,-174 151,-180 145,-180"/>
<text text-anchor="middle" x="123" y="-159.5" font-family="sans" font-size="10.00">create_vtk</text>
</g>
<!-- 2&#45;&gt;1 -->
<g id="edge9" class="edge">
<title>2&#45;&gt;1</title>
<path fill="none" stroke="grey" stroke-width="2" d="M102.48,-143.7C92.13,-134.97 79.41,-124.24 68.16,-114.75"/>
<polygon fill="grey" stroke="grey" stroke-width="2" points="70.18,-111.88 60.28,-108.1 65.67,-117.23 70.18,-111.88"/>
</g>
<!-- 26 -->
<g id="node27" class="node">
<title>26</title>
<path fill="none" stroke="#56d86b" stroke-width="2" d="M145.5,-108C145.5,-108 110.5,-108 110.5,-108 104.5,-108 98.5,-102 98.5,-96 98.5,-96 98.5,-84 98.5,-84 98.5,-78 104.5,-72 110.5,-72 110.5,-72 145.5,-72 145.5,-72 151.5,-72 157.5,-78 157.5,-84 157.5,-84 157.5,-96 157.5,-96 157.5,-102 151.5,-108 145.5,-108"/>
<text text-anchor="middle" x="128" y="-87.5" font-family="sans" font-size="10.00">contours</text>
</g>
<!-- 2&#45;&gt;26 -->
<g id="edge33" class="edge">
<title>2&#45;&gt;26</title>
<path fill="none" stroke="grey" stroke-width="2" d="M124.24,-143.7C124.79,-135.98 125.45,-126.71 126.06,-118.11"/>
<polygon fill="grey" stroke="grey" stroke-width="2" points="129.56,-118.33 126.78,-108.1 122.57,-117.83 129.56,-118.33"/>
</g>
<!-- 3 -->
<g id="node4" class="node">
<title>3</title>
<path fill="none" stroke="#5682d8" stroke-width="2" d="M138.5,-252C138.5,-252 107.5,-252 107.5,-252 101.5,-252 95.5,-246 95.5,-240 95.5,-240 95.5,-228 95.5,-228 95.5,-222 101.5,-216 107.5,-216 107.5,-216 138.5,-216 138.5,-216 144.5,-216 150.5,-222 150.5,-228 150.5,-228 150.5,-240 150.5,-240 150.5,-246 144.5,-252 138.5,-252"/>
<text text-anchor="middle" x="123" y="-231.5" font-family="sans" font-size="10.00">execute</text>
</g>
<!-- 3&#45;&gt;2 -->
<g id="edge10" class="edge">
<title>3&#45;&gt;2</title>
<path fill="none" stroke="grey" stroke-width="2" d="M123,-215.7C123,-207.98 123,-198.71 123,-190.11"/>
<polygon fill="grey" stroke="grey" stroke-width="2" points="126.5,-190.1 123,-180.1 119.5,-190.1 126.5,-190.1"/>
</g>
<!-- 4 -->
<g id="node5" class="node">
<title>4</title>
<path fill="none" stroke="#56b1d8" stroke-width="2" d="M163,-324C163,-324 83,-324 83,-324 77,-324 71,-318 71,-312 71,-312 71,-300 71,-300 71,-294 77,-288 83,-288 83,-288 163,-288 163,-288 169,-288 175,-294 175,-300 175,-300 175,-312 175,-312 175,-318 169,-324 163,-324"/>
<text text-anchor="middle" x="123" y="-303.5" font-family="sans" font-size="10.00">prep_independent</text>
</g>
<!-- 4&#45;&gt;3 -->
<g id="edge11" class="edge">
<title>4&#45;&gt;3</title>
<path fill="none" stroke="grey" stroke-width="2" d="M123,-287.7C123,-279.98 123,-270.71 123,-262.11"/>
<polygon fill="grey" stroke="grey" stroke-width="2" points="126.5,-262.1 123,-252.1 119.5,-262.1 126.5,-262.1"/>
</g>
<!-- 5 -->
<g id="node6" class="node">
<title>5</title>
<path fill="none" stroke="#d85656" stroke-width="2" d="M133.5,-396C133.5,-396 82.5,-396 82.5,-396 76.5,-396 70.5,-390 70.5,-384 70.5,-384 70.5,-372 70.5,-372 70.5,-366 76.5,-360 82.5,-360 82.5,-360 133.5,-360 133.5,-360 139.5,-360 145.5,-366 145.5,-372 145.5,-372 145.5,-384 145.5,-384 145.5,-390 139.5,-396 133.5,-396"/>
<text text-anchor="middle" x="108" y="-375.5" font-family="sans" font-size="10.00">create_case</text>
</g>
<!-- 5&#45;&gt;4 -->
<g id="edge12" class="edge">
<title>5&#45;&gt;4</title>
<path fill="none" stroke="grey" stroke-width="2" d="M111.71,-359.7C113.36,-351.98 115.35,-342.71 117.19,-334.11"/>
<polygon fill="grey" stroke="grey" stroke-width="2" points="120.66,-334.62 119.33,-324.1 113.82,-333.15 120.66,-334.62"/>
</g>
<!-- 6 -->
<g id="node7" class="node">
<title>6</title>
<path fill="none" stroke="#9fd856" stroke-width="2" d="M155,-506C155,-506 45,-506 45,-506 39,-506 33,-500 33,-494 33,-494 33,-444 33,-444 33,-438 39,-432 45,-432 45,-432 155,-432 155,-432 161,-432 167,-438 167,-444 167,-444 167,-494 167,-494 167,-500 161,-506 155,-506"/>
<text text-anchor="middle" x="100" y="-494" font-family="sans" font-size="10.00">write_caseconfig</text>
<text text-anchor="middle" x="100" y="-483" font-family="sans" font-size="10.00">dependency: 0</text>
<text text-anchor="middle" x="100" y="-472" font-family="sans" font-size="10.00">id: A1</text>
<text text-anchor="middle" x="100" y="-461" font-family="sans" font-size="10.00">pressure_outlet: 100000</text>
<text text-anchor="middle" x="100" y="-450" font-family="sans" font-size="10.00">velocity_inlet_u: 30</text>
<text text-anchor="middle" x="100" y="-439" font-family="sans" font-size="10.00">velocity_inlet_v: 40</text>
</g>
<!-- 6&#45;&gt;5 -->
<g id="edge14" class="edge">
<title>6&#45;&gt;5</title>
<path fill="none" stroke="grey" stroke-width="2" d="M103.25,-431.8C104.02,-423.23 104.83,-414.24 105.56,-406.16"/>
<polygon fill="grey" stroke="grey" stroke-width="2" points="109.05,-406.43 106.46,-396.16 102.08,-405.81 109.05,-406.43"/>
</g>
<!-- 7 -->
<g id="node8" class="node">
<title>7</title>
<path fill="none" stroke="#ced856" stroke-width="2" d="M406.5,-396C406.5,-396 315.5,-396 315.5,-396 309.5,-396 303.5,-390 303.5,-384 303.5,-384 303.5,-372 303.5,-372 303.5,-366 309.5,-360 315.5,-360 315.5,-360 406.5,-360 406.5,-360 412.5,-360 418.5,-366 418.5,-372 418.5,-372 418.5,-384 418.5,-384 418.5,-390 412.5,-396 406.5,-396"/>
<text text-anchor="middle" x="361" y="-375.5" font-family="sans" font-size="10.00">touch_independents</text>
</g>
<!-- 7&#45;&gt;4 -->
<g id="edge13" class="edge">
<title>7&#45;&gt;4</title>
<path fill="none" stroke="grey" stroke-width="2" d="M303.39,-360.05C267.67,-349.55 221.8,-336.06 185.26,-325.31"/>
<polygon fill="grey" stroke="grey" stroke-width="2" points="185.79,-321.82 175.21,-322.36 183.82,-328.54 185.79,-321.82"/>
</g>
<!-- 11 -->
<g id="node12" class="node">
<title>11</title>
<path fill="none" stroke="#56b1d8" stroke-width="2" d="M310,-324C310,-324 230,-324 230,-324 224,-324 218,-318 218,-312 218,-312 218,-300 218,-300 218,-294 224,-288 230,-288 230,-288 310,-288 310,-288 316,-288 322,-294 322,-300 322,-300 322,-312 322,-312 322,-318 316,-324 310,-324"/>
<text text-anchor="middle" x="270" y="-303.5" font-family="sans" font-size="10.00">prep_independent</text>
</g>
<!-- 7&#45;&gt;11 -->
<g id="edge19" class="edge">
<title>7&#45;&gt;11</title>
<path fill="none" stroke="grey" stroke-width="2" d="M338.51,-359.7C327.04,-350.88 312.94,-340.03 300.52,-330.47"/>
<polygon fill="grey" stroke="grey" stroke-width="2" points="302.3,-327.43 292.24,-324.1 298.03,-332.98 302.3,-327.43"/>
</g>
<!-- 17 -->
<g id="node18" class="node">
<title>17</title>
<path fill="none" stroke="#56b1d8" stroke-width="2" d="M463,-324C463,-324 383,-324 383,-324 377,-324 371,-318 371,-312 371,-312 371,-300 371,-300 371,-294 377,-288 383,-288 383,-288 463,-288 463,-288 469,-288 475,-294 475,-300 475,-300 475,-312 475,-312 475,-318 469,-324 463,-324"/>
<text text-anchor="middle" x="423" y="-303.5" font-family="sans" font-size="10.00">prep_independent</text>
</g>
<!-- 7&#45;&gt;17 -->
<g id="edge25" class="edge">
<title>7&#45;&gt;17</title>
<path fill="none" stroke="grey" stroke-width="2" d="M376.33,-359.7C383.76,-351.3 392.82,-341.07 400.98,-331.86"/>
<polygon fill="grey" stroke="grey" stroke-width="2" points="403.84,-333.91 407.85,-324.1 398.6,-329.27 403.84,-333.91"/>
</g>
<!-- 23 -->
<g id="node24" class="node">
<title>23</title>
<path fill="none" stroke="#56b1d8" stroke-width="2" d="M612,-324C612,-324 532,-324 532,-324 526,-324 520,-318 520,-312 520,-312 520,-300 520,-300 520,-294 526,-288 532,-288 532,-288 612,-288 612,-288 618,-288 624,-294 624,-300 624,-300 624,-312 624,-312 624,-318 618,-324 612,-324"/>
<text text-anchor="middle" x="572" y="-303.5" font-family="sans" font-size="10.00">prep_independent</text>
</g>
<!-- 7&#45;&gt;23 -->
<g id="edge31" class="edge">
<title>7&#45;&gt;23</title>
<path fill="none" stroke="grey" stroke-width="2" d="M412.35,-359.97C441.96,-350.14 479.37,-337.73 510.54,-327.39"/>
<polygon fill="grey" stroke="grey" stroke-width="2" points="512.03,-330.58 520.42,-324.11 509.83,-323.94 512.03,-330.58"/>
</g>
<!-- 8 -->
<g id="node9" class="node">
<title>8</title>
<path fill="none" stroke="#56d89a" stroke-width="2" d="M244,-108C244,-108 188,-108 188,-108 182,-108 176,-102 176,-96 176,-96 176,-84 176,-84 176,-78 182,-72 188,-72 188,-72 244,-72 244,-72 250,-72 256,-78 256,-84 256,-84 256,-96 256,-96 256,-102 250,-108 244,-108"/>
<text text-anchor="middle" x="216" y="-87.5" font-family="sans" font-size="10.00">bladeloading</text>
</g>
<!-- 8&#45;&gt;0 -->
<g id="edge2" class="edge">
<title>8&#45;&gt;0</title>
<path fill="none" stroke="grey" stroke-width="2" d="M248.29,-71.88C267.53,-61.67 291.99,-48.7 311.88,-38.16"/>
<polygon fill="grey" stroke="grey" stroke-width="2" points="313.74,-41.13 320.94,-33.35 310.46,-34.94 313.74,-41.13"/>
</g>
<!-- 9 -->
<g id="node10" class="node">
<title>9</title>
<path fill="none" stroke="#56d8c9" stroke-width="2" d="M292,-180C292,-180 248,-180 248,-180 242,-180 236,-174 236,-168 236,-168 236,-156 236,-156 236,-150 242,-144 248,-144 248,-144 292,-144 292,-144 298,-144 304,-150 304,-156 304,-156 304,-168 304,-168 304,-174 298,-180 292,-180"/>
<text text-anchor="middle" x="270" y="-159.5" font-family="sans" font-size="10.00">create_vtk</text>
</g>
<!-- 9&#45;&gt;8 -->
<g id="edge15" class="edge">
<title>9&#45;&gt;8</title>
<path fill="none" stroke="grey" stroke-width="2" d="M256.65,-143.7C250.24,-135.39 242.44,-125.28 235.39,-116.14"/>
<polygon fill="grey" stroke="grey" stroke-width="2" points="238.07,-113.88 229.19,-108.1 232.53,-118.16 238.07,-113.88"/>
</g>
<!-- 27 -->
<g id="node28" class="node">
<title>27</title>
<path fill="none" stroke="#56d86b" stroke-width="2" d="M321.5,-108C321.5,-108 286.5,-108 286.5,-108 280.5,-108 274.5,-102 274.5,-96 274.5,-96 274.5,-84 274.5,-84 274.5,-78 280.5,-72 286.5,-72 286.5,-72 321.5,-72 321.5,-72 327.5,-72 333.5,-78 333.5,-84 333.5,-84 333.5,-96 333.5,-96 333.5,-102 327.5,-108 321.5,-108"/>
<text text-anchor="middle" x="304" y="-87.5" font-family="sans" font-size="10.00">contours</text>
</g>
<!-- 9&#45;&gt;27 -->
<g id="edge34" class="edge">
<title>9&#45;&gt;27</title>
<path fill="none" stroke="grey" stroke-width="2" d="M278.4,-143.7C282.27,-135.73 286.95,-126.1 291.24,-117.26"/>
<polygon fill="grey" stroke="grey" stroke-width="2" points="294.47,-118.63 295.69,-108.1 288.17,-115.57 294.47,-118.63"/>
</g>
<!-- 10 -->
<g id="node11" class="node">
<title>10</title>
<path fill="none" stroke="#5682d8" stroke-width="2" d="M285.5,-252C285.5,-252 254.5,-252 254.5,-252 248.5,-252 242.5,-246 242.5,-240 242.5,-240 242.5,-228 242.5,-228 242.5,-222 248.5,-216 254.5,-216 254.5,-216 285.5,-216 285.5,-216 291.5,-216 297.5,-222 297.5,-228 297.5,-228 297.5,-240 297.5,-240 297.5,-246 291.5,-252 285.5,-252"/>
<text text-anchor="middle" x="270" y="-231.5" font-family="sans" font-size="10.00">execute</text>
</g>
<!-- 10&#45;&gt;9 -->
<g id="edge16" class="edge">
<title>10&#45;&gt;9</title>
<path fill="none" stroke="grey" stroke-width="2" d="M270,-215.7C270,-207.98 270,-198.71 270,-190.11"/>
<polygon fill="grey" stroke="grey" stroke-width="2" points="273.5,-190.1 270,-180.1 266.5,-190.1 273.5,-190.1"/>
</g>
<!-- 11&#45;&gt;10 -->
<g id="edge17" class="edge">
<title>11&#45;&gt;10</title>
<path fill="none" stroke="grey" stroke-width="2" d="M270,-287.7C270,-279.98 270,-270.71 270,-262.11"/>
<polygon fill="grey" stroke="grey" stroke-width="2" points="273.5,-262.1 270,-252.1 266.5,-262.1 273.5,-262.1"/>
</g>
<!-- 12 -->
<g id="node13" class="node">
<title>12</title>
<path fill="none" stroke="#d85656" stroke-width="2" d="M273.5,-396C273.5,-396 222.5,-396 222.5,-396 216.5,-396 210.5,-390 210.5,-384 210.5,-384 210.5,-372 210.5,-372 210.5,-366 216.5,-360 222.5,-360 222.5,-360 273.5,-360 273.5,-360 279.5,-360 285.5,-366 285.5,-372 285.5,-372 285.5,-384 285.5,-384 285.5,-390 279.5,-396 273.5,-396"/>
<text text-anchor="middle" x="248" y="-375.5" font-family="sans" font-size="10.00">create_case</text>
</g>
<!-- 12&#45;&gt;11 -->
<g id="edge18" class="edge">
<title>12&#45;&gt;11</title>
<path fill="none" stroke="grey" stroke-width="2" d="M253.44,-359.7C255.89,-351.9 258.84,-342.51 261.57,-333.83"/>
<polygon fill="grey" stroke="grey" stroke-width="2" points="264.96,-334.69 264.62,-324.1 258.29,-332.59 264.96,-334.69"/>
</g>
<!-- 13 -->
<g id="node14" class="node">
<title>13</title>
<path fill="none" stroke="#9fd856" stroke-width="2" d="M307,-506C307,-506 197,-506 197,-506 191,-506 185,-500 185,-494 185,-494 185,-444 185,-444 185,-438 191,-432 197,-432 197,-432 307,-432 307,-432 313,-432 319,-438 319,-444 319,-444 319,-494 319,-494 319,-500 313,-506 307,-506"/>
<text text-anchor="middle" x="252" y="-494" font-family="sans" font-size="10.00">write_caseconfig</text>
<text text-anchor="middle" x="252" y="-483" font-family="sans" font-size="10.00">dependency: 0</text>
<text text-anchor="middle" x="252" y="-472" font-family="sans" font-size="10.00">id: A2</text>
<text text-anchor="middle" x="252" y="-461" font-family="sans" font-size="10.00">pressure_outlet: 100000</text>
<text text-anchor="middle" x="252" y="-450" font-family="sans" font-size="10.00">velocity_inlet_u: 30</text>
<text text-anchor="middle" x="252" y="-439" font-family="sans" font-size="10.00">velocity_inlet_v: 40</text>
</g>
<!-- 13&#45;&gt;12 -->
<g id="edge20" class="edge">
<title>13&#45;&gt;12</title>
<path fill="none" stroke="grey" stroke-width="2" d="M250.37,-431.8C249.99,-423.23 249.58,-414.24 249.22,-406.16"/>
<polygon fill="grey" stroke="grey" stroke-width="2" points="252.72,-405.99 248.77,-396.16 245.72,-406.31 252.72,-405.99"/>
</g>
<!-- 14 -->
<g id="node15" class="node">
<title>14</title>
<path fill="none" stroke="#56d89a" stroke-width="2" d="M420,-108C420,-108 364,-108 364,-108 358,-108 352,-102 352,-96 352,-96 352,-84 352,-84 352,-78 358,-72 364,-72 364,-72 420,-72 420,-72 426,-72 432,-78 432,-84 432,-84 432,-96 432,-96 432,-102 426,-108 420,-108"/>
<text text-anchor="middle" x="392" y="-87.5" font-family="sans" font-size="10.00">bladeloading</text>
</g>
<!-- 14&#45;&gt;0 -->
<g id="edge3" class="edge">
<title>14&#45;&gt;0</title>
<path fill="none" stroke="grey" stroke-width="2" d="M381.12,-71.7C376.01,-63.56 369.8,-53.69 364.16,-44.7"/>
<polygon fill="grey" stroke="grey" stroke-width="2" points="367.04,-42.71 358.75,-36.1 361.11,-46.43 367.04,-42.71"/>
</g>
<!-- 15 -->
<g id="node16" class="node">
<title>15</title>
<path fill="none" stroke="#56d8c9" stroke-width="2" d="M445,-180C445,-180 401,-180 401,-180 395,-180 389,-174 389,-168 389,-168 389,-156 389,-156 389,-150 395,-144 401,-144 401,-144 445,-144 445,-144 451,-144 457,-150 457,-156 457,-156 457,-168 457,-168 457,-174 451,-180 445,-180"/>
<text text-anchor="middle" x="423" y="-159.5" font-family="sans" font-size="10.00">create_vtk</text>
</g>
<!-- 15&#45;&gt;14 -->
<g id="edge21" class="edge">
<title>15&#45;&gt;14</title>
<path fill="none" stroke="grey" stroke-width="2" d="M415.34,-143.7C411.81,-135.73 407.54,-126.1 403.63,-117.26"/>
<polygon fill="grey" stroke="grey" stroke-width="2" points="406.82,-115.83 399.57,-108.1 400.42,-118.67 406.82,-115.83"/>
</g>
<!-- 28 -->
<g id="node29" class="node">
<title>28</title>
<path fill="none" stroke="#56d86b" stroke-width="2" d="M497.5,-108C497.5,-108 462.5,-108 462.5,-108 456.5,-108 450.5,-102 450.5,-96 450.5,-96 450.5,-84 450.5,-84 450.5,-78 456.5,-72 462.5,-72 462.5,-72 497.5,-72 497.5,-72 503.5,-72 509.5,-78 509.5,-84 509.5,-84 509.5,-96 509.5,-96 509.5,-102 503.5,-108 497.5,-108"/>
<text text-anchor="middle" x="480" y="-87.5" font-family="sans" font-size="10.00">contours</text>
</g>
<!-- 15&#45;&gt;28 -->
<g id="edge35" class="edge">
<title>15&#45;&gt;28</title>
<path fill="none" stroke="grey" stroke-width="2" d="M437.09,-143.7C443.92,-135.3 452.26,-125.07 459.76,-115.86"/>
<polygon fill="grey" stroke="grey" stroke-width="2" points="462.47,-118.07 466.07,-108.1 457.04,-113.65 462.47,-118.07"/>
</g>
<!-- 16 -->
<g id="node17" class="node">
<title>16</title>
<path fill="none" stroke="#5682d8" stroke-width="2" d="M438.5,-252C438.5,-252 407.5,-252 407.5,-252 401.5,-252 395.5,-246 395.5,-240 395.5,-240 395.5,-228 395.5,-228 395.5,-222 401.5,-216 407.5,-216 407.5,-216 438.5,-216 438.5,-216 444.5,-216 450.5,-222 450.5,-228 450.5,-228 450.5,-240 450.5,-240 450.5,-246 444.5,-252 438.5,-252"/>
<text text-anchor="middle" x="423" y="-231.5" font-family="sans" font-size="10.00">execute</text>
</g>
<!-- 16&#45;&gt;15 -->
<g id="edge22" class="edge">
<title>16&#45;&gt;15</title>
<path fill="none" stroke="grey" stroke-width="2" d="M423,-215.7C423,-207.98 423,-198.71 423,-190.11"/>
<polygon fill="grey" stroke="grey" stroke-width="2" points="426.5,-190.1 423,-180.1 419.5,-190.1 426.5,-190.1"/>
</g>
<!-- 17&#45;&gt;16 -->
<g id="edge23" class="edge">
<title>17&#45;&gt;16</title>
<path fill="none" stroke="grey" stroke-width="2" d="M423,-287.7C423,-279.98 423,-270.71 423,-262.11"/>
<polygon fill="grey" stroke="grey" stroke-width="2" points="426.5,-262.1 423,-252.1 419.5,-262.1 426.5,-262.1"/>
</g>
<!-- 18 -->
<g id="node19" class="node">
<title>18</title>
<path fill="none" stroke="#d85656" stroke-width="2" d="M499.5,-396C499.5,-396 448.5,-396 448.5,-396 442.5,-396 436.5,-390 436.5,-384 436.5,-384 436.5,-372 436.5,-372 436.5,-366 442.5,-360 448.5,-360 448.5,-360 499.5,-360 499.5,-360 505.5,-360 511.5,-366 511.5,-372 511.5,-372 511.5,-384 511.5,-384 511.5,-390 505.5,-396 499.5,-396"/>
<text text-anchor="middle" x="474" y="-375.5" font-family="sans" font-size="10.00">create_case</text>
</g>
<!-- 18&#45;&gt;17 -->
<g id="edge24" class="edge">
<title>18&#45;&gt;17</title>
<path fill="none" stroke="grey" stroke-width="2" d="M461.39,-359.7C455.4,-351.47 448.12,-341.48 441.52,-332.42"/>
<polygon fill="grey" stroke="grey" stroke-width="2" points="444.18,-330.13 435.46,-324.1 438.52,-334.25 444.18,-330.13"/>
</g>
<!-- 19 -->
<g id="node20" class="node">
<title>19</title>
<path fill="none" stroke="#9fd856" stroke-width="2" d="M506,-506C506,-506 396,-506 396,-506 390,-506 384,-500 384,-494 384,-494 384,-444 384,-444 384,-438 390,-432 396,-432 396,-432 506,-432 506,-432 512,-432 518,-438 518,-444 518,-444 518,-494 518,-494 518,-500 512,-506 506,-506"/>
<text text-anchor="middle" x="451" y="-494" font-family="sans" font-size="10.00">write_caseconfig</text>
<text text-anchor="middle" x="451" y="-483" font-family="sans" font-size="10.00">dependency: 0</text>
<text text-anchor="middle" x="451" y="-472" font-family="sans" font-size="10.00">id: A3</text>
<text text-anchor="middle" x="451" y="-461" font-family="sans" font-size="10.00">pressure_outlet: 100000</text>
<text text-anchor="middle" x="451" y="-450" font-family="sans" font-size="10.00">velocity_inlet_u: 30</text>
<text text-anchor="middle" x="451" y="-439" font-family="sans" font-size="10.00">velocity_inlet_v: 40</text>
</g>
<!-- 19&#45;&gt;18 -->
<g id="edge26" class="edge">
<title>19&#45;&gt;18</title>
<path fill="none" stroke="grey" stroke-width="2" d="M460.35,-431.8C462.59,-423.14 464.94,-414.04 467.05,-405.88"/>
<polygon fill="grey" stroke="grey" stroke-width="2" points="470.45,-406.72 469.57,-396.16 463.67,-404.97 470.45,-406.72"/>
</g>
<!-- 20 -->
<g id="node21" class="node">
<title>20</title>
<path fill="none" stroke="#56d89a" stroke-width="2" d="M596,-108C596,-108 540,-108 540,-108 534,-108 528,-102 528,-96 528,-96 528,-84 528,-84 528,-78 534,-72 540,-72 540,-72 596,-72 596,-72 602,-72 608,-78 608,-84 608,-84 608,-96 608,-96 608,-102 602,-108 596,-108"/>
<text text-anchor="middle" x="568" y="-87.5" font-family="sans" font-size="10.00">bladeloading</text>
</g>
<!-- 20&#45;&gt;0 -->
<g id="edge4" class="edge">
<title>20&#45;&gt;0</title>
<path fill="none" stroke="grey" stroke-width="2" d="M527.91,-75.27C524.56,-74.15 521.23,-73.05 518,-72 472.25,-57.09 419.3,-40.72 384.8,-30.18"/>
<polygon fill="grey" stroke="grey" stroke-width="2" points="385.74,-26.8 375.16,-27.23 383.7,-33.5 385.74,-26.8"/>
</g>
<!-- 21 -->
<g id="node22" class="node">
<title>21</title>
<path fill="none" stroke="#56d8c9" stroke-width="2" d="M594,-180C594,-180 550,-180 550,-180 544,-180 538,-174 538,-168 538,-168 538,-156 538,-156 538,-150 544,-144 550,-144 550,-144 594,-144 594,-144 600,-144 606,-150 606,-156 606,-156 606,-168 606,-168 606,-174 600,-180 594,-180"/>
<text text-anchor="middle" x="572" y="-159.5" font-family="sans" font-size="10.00">create_vtk</text>
</g>
<!-- 21&#45;&gt;20 -->
<g id="edge27" class="edge">
<title>21&#45;&gt;20</title>
<path fill="none" stroke="grey" stroke-width="2" d="M571.01,-143.7C570.57,-135.98 570.04,-126.71 569.55,-118.11"/>
<polygon fill="grey" stroke="grey" stroke-width="2" points="573.04,-117.89 568.98,-108.1 566.05,-118.29 573.04,-117.89"/>
</g>
<!-- 29 -->
<g id="node30" class="node">
<title>29</title>
<path fill="none" stroke="#56d86b" stroke-width="2" d="M673.5,-108C673.5,-108 638.5,-108 638.5,-108 632.5,-108 626.5,-102 626.5,-96 626.5,-96 626.5,-84 626.5,-84 626.5,-78 632.5,-72 638.5,-72 638.5,-72 673.5,-72 673.5,-72 679.5,-72 685.5,-78 685.5,-84 685.5,-84 685.5,-96 685.5,-96 685.5,-102 679.5,-108 673.5,-108"/>
<text text-anchor="middle" x="656" y="-87.5" font-family="sans" font-size="10.00">contours</text>
</g>
<!-- 21&#45;&gt;29 -->
<g id="edge36" class="edge">
<title>21&#45;&gt;29</title>
<path fill="none" stroke="grey" stroke-width="2" d="M592.76,-143.7C603.24,-134.97 616.11,-124.24 627.5,-114.75"/>
<polygon fill="grey" stroke="grey" stroke-width="2" points="630.03,-117.19 635.47,-108.1 625.55,-111.82 630.03,-117.19"/>
</g>
<!-- 22 -->
<g id="node23" class="node">
<title>22</title>
<path fill="none" stroke="#5682d8" stroke-width="2" d="M587.5,-252C587.5,-252 556.5,-252 556.5,-252 550.5,-252 544.5,-246 544.5,-240 544.5,-240 544.5,-228 544.5,-228 544.5,-222 550.5,-216 556.5,-216 556.5,-216 587.5,-216 587.5,-216 593.5,-216 599.5,-222 599.5,-228 599.5,-228 599.5,-240 599.5,-240 599.5,-246 593.5,-252 587.5,-252"/>
<text text-anchor="middle" x="572" y="-231.5" font-family="sans" font-size="10.00">execute</text>
</g>
<!-- 22&#45;&gt;21 -->
<g id="edge28" class="edge">
<title>22&#45;&gt;21</title>
<path fill="none" stroke="grey" stroke-width="2" d="M572,-215.7C572,-207.98 572,-198.71 572,-190.11"/>
<polygon fill="grey" stroke="grey" stroke-width="2" points="575.5,-190.1 572,-180.1 568.5,-190.1 575.5,-190.1"/>
</g>
<!-- 23&#45;&gt;22 -->
<g id="edge29" class="edge">
<title>23&#45;&gt;22</title>
<path fill="none" stroke="grey" stroke-width="2" d="M572,-287.7C572,-279.98 572,-270.71 572,-262.11"/>
<polygon fill="grey" stroke="grey" stroke-width="2" points="575.5,-262.1 572,-252.1 568.5,-262.1 575.5,-262.1"/>
</g>
<!-- 24 -->
<g id="node25" class="node">
<title>24</title>
<path fill="none" stroke="#d85656" stroke-width="2" d="M606.5,-396C606.5,-396 555.5,-396 555.5,-396 549.5,-396 543.5,-390 543.5,-384 543.5,-384 543.5,-372 543.5,-372 543.5,-366 549.5,-360 555.5,-360 555.5,-360 606.5,-360 606.5,-360 612.5,-360 618.5,-366 618.5,-372 618.5,-372 618.5,-384 618.5,-384 618.5,-390 612.5,-396 606.5,-396"/>
<text text-anchor="middle" x="581" y="-375.5" font-family="sans" font-size="10.00">create_case</text>
</g>
<!-- 24&#45;&gt;23 -->
<g id="edge30" class="edge">
<title>24&#45;&gt;23</title>
<path fill="none" stroke="grey" stroke-width="2" d="M578.78,-359.7C577.78,-351.98 576.59,-342.71 575.49,-334.11"/>
<polygon fill="grey" stroke="grey" stroke-width="2" points="578.95,-333.58 574.2,-324.1 572,-334.47 578.95,-333.58"/>
</g>
<!-- 25 -->
<g id="node26" class="node">
<title>25</title>
<path fill="none" stroke="#9fd856" stroke-width="2" d="M658,-506C658,-506 548,-506 548,-506 542,-506 536,-500 536,-494 536,-494 536,-444 536,-444 536,-438 542,-432 548,-432 548,-432 658,-432 658,-432 664,-432 670,-438 670,-444 670,-444 670,-494 670,-494 670,-500 664,-506 658,-506"/>
<text text-anchor="middle" x="603" y="-494" font-family="sans" font-size="10.00">write_caseconfig</text>
<text text-anchor="middle" x="603" y="-483" font-family="sans" font-size="10.00">dependency: 0</text>
<text text-anchor="middle" x="603" y="-472" font-family="sans" font-size="10.00">id: A4</text>
<text text-anchor="middle" x="603" y="-461" font-family="sans" font-size="10.00">pressure_outlet: 100000</text>
<text text-anchor="middle" x="603" y="-450" font-family="sans" font-size="10.00">velocity_inlet_u: 30</text>
<text text-anchor="middle" x="603" y="-439" font-family="sans" font-size="10.00">velocity_inlet_v: 40</text>
</g>
<!-- 25&#45;&gt;24 -->
<g id="edge32" class="edge">
<title>25&#45;&gt;24</title>
<path fill="none" stroke="grey" stroke-width="2" d="M594.05,-431.8C591.91,-423.14 589.66,-414.04 587.65,-405.88"/>
<polygon fill="grey" stroke="grey" stroke-width="2" points="591.04,-405.03 585.24,-396.16 584.24,-406.71 591.04,-405.03"/>
</g>
<!-- 26&#45;&gt;0 -->
<g id="edge5" class="edge">
<title>26&#45;&gt;0</title>
<path fill="none" stroke="grey" stroke-width="2" d="M157.65,-75.61C160.79,-74.34 163.94,-73.11 167,-72 216.1,-54.19 274.28,-38 311.16,-28.32"/>
<polygon fill="grey" stroke="grey" stroke-width="2" points="312.18,-31.68 320.98,-25.77 310.42,-24.9 312.18,-31.68"/>
</g>
<!-- 27&#45;&gt;0 -->
<g id="edge6" class="edge">
<title>27&#45;&gt;0</title>
<path fill="none" stroke="grey" stroke-width="2" d="M314.88,-71.7C319.99,-63.56 326.2,-53.69 331.84,-44.7"/>
<polygon fill="grey" stroke="grey" stroke-width="2" points="334.89,-46.43 337.25,-36.1 328.96,-42.71 334.89,-46.43"/>
</g>
<!-- 28&#45;&gt;0 -->
<g id="edge7" class="edge">
<title>28&#45;&gt;0</title>
<path fill="none" stroke="grey" stroke-width="2" d="M450.38,-73.29C430.78,-62.9 404.95,-49.2 384.15,-38.17"/>
<polygon fill="grey" stroke="grey" stroke-width="2" points="385.75,-35.06 375.28,-33.46 382.47,-41.24 385.75,-35.06"/>
</g>
<!-- 29&#45;&gt;0 -->
<g id="edge8" class="edge">
<title>29&#45;&gt;0</title>
<path fill="none" stroke="grey" stroke-width="2" d="M626.44,-75.33C623.29,-74.11 620.1,-72.97 617,-72 536.24,-46.77 437.94,-31.02 385.39,-23.76"/>
<polygon fill="grey" stroke="grey" stroke-width="2" points="385.59,-20.25 375.21,-22.37 384.65,-27.19 385.59,-20.25"/>
</g>
</g>
</svg>
