<?xml version="1.0" encoding="UTF-8" standalone="no"?>
<!DOCTYPE svg PUBLIC "-//W3C//DTD SVG 1.1//EN"
 "http://www.w3.org/Graphics/SVG/1.1/DTD/svg11.dtd">
<!-- Generated by graphviz version 2.43.0 (0)
 -->
<!-- Title: snakemake_dag Pages: 1 -->
<svg width="727pt" height="878pt"
 viewBox="0.00 0.00 726.50 878.00" xmlns="http://www.w3.org/2000/svg" xmlns:xlink="http://www.w3.org/1999/xlink">
<g id="graph0" class="graph" transform="scale(1 1) rotate(0) translate(4 874)">
<title>snakemake_dag</title>
<polygon fill="white" stroke="transparent" points="-4,4 -4,-874 722.5,-874 722.5,4 -4,4"/>
<!-- 0 -->
<g id="node1" class="node">
<title>0</title>
<path fill="none" stroke="#56d86b" stroke-width="2" d="M363,-36C363,-36 333,-36 333,-36 327,-36 321,-30 321,-24 321,-24 321,-12 321,-12 321,-6 327,0 333,0 333,0 363,0 363,0 369,0 375,-6 375,-12 375,-12 375,-24 375,-24 375,-30 369,-36 363,-36"/>
<text text-anchor="middle" x="348" y="-15.5" font-family="sans" font-size="10.00">all</text>
</g>
<!-- 1 -->
<g id="node2" class="node">
<title>1</title>
<path fill="none" stroke="#56b1d8" stroke-width="2" d="M596,-108C596,-108 540,-108 540,-108 534,-108 528,-102 528,-96 528,-96 528,-84 528,-84 528,-78 534,-72 540,-72 540,-72 596,-72 596,-72 602,-72 608,-78 608,-84 608,-84 608,-96 608,-96 608,-102 602,-108 596,-108"/>
<text text-anchor="middle" x="568" y="-87.5" font-family="sans" font-size="10.00">bladeloading</text>
</g>
<!-- 1&#45;&gt;0 -->
<g id="edge1" class="edge">
<title>1&#45;&gt;0</title>
<path fill="none" stroke="grey" stroke-width="2" d="M527.93,-74.97C524.91,-73.96 521.91,-72.96 519,-72 472.91,-56.87 419.45,-40.48 384.74,-30"/>
<polygon fill="grey" stroke="grey" stroke-width="2" points="385.62,-26.61 375.04,-27.08 383.6,-33.31 385.62,-26.61"/>
</g>
<!-- 2 -->
<g id="node3" class="node">
<title>2</title>
<path fill="none" stroke="#70d856" stroke-width="2" d="M657,-180C657,-180 613,-180 613,-180 607,-180 601,-174 601,-168 601,-168 601,-156 601,-156 601,-150 607,-144 613,-144 613,-144 657,-144 657,-144 663,-144 669,-150 669,-156 669,-156 669,-168 669,-168 669,-174 663,-180 657,-180"/>
<text text-anchor="middle" x="635" y="-159.5" font-family="sans" font-size="10.00">create_vtk</text>
</g>
<!-- 2&#45;&gt;1 -->
<g id="edge9" class="edge">
<title>2&#45;&gt;1</title>
<path fill="none" stroke="grey" stroke-width="2" d="M618.44,-143.7C610.32,-135.22 600.41,-124.86 591.53,-115.58"/>
<polygon fill="grey" stroke="grey" stroke-width="2" points="593.81,-112.91 584.37,-108.1 588.76,-117.75 593.81,-112.91"/>
</g>
<!-- 27 -->
<g id="node28" class="node">
<title>27</title>
<path fill="none" stroke="#ced856" stroke-width="2" d="M673.5,-108C673.5,-108 638.5,-108 638.5,-108 632.5,-108 626.5,-102 626.5,-96 626.5,-96 626.5,-84 626.5,-84 626.5,-78 632.5,-72 638.5,-72 638.5,-72 673.5,-72 673.5,-72 679.5,-72 685.5,-78 685.5,-84 685.5,-84 685.5,-96 685.5,-96 685.5,-102 679.5,-108 673.5,-108"/>
<text text-anchor="middle" x="656" y="-87.5" font-family="sans" font-size="10.00">contours</text>
</g>
<!-- 2&#45;&gt;27 -->
<g id="edge36" class="edge">
<title>2&#45;&gt;27</title>
<path fill="none" stroke="grey" stroke-width="2" d="M640.19,-143.7C642.53,-135.9 645.35,-126.51 647.95,-117.83"/>
<polygon fill="grey" stroke="grey" stroke-width="2" points="651.35,-118.69 650.87,-108.1 644.64,-116.68 651.35,-118.69"/>
</g>
<!-- 3 -->
<g id="node4" class="node">
<title>3</title>
<path fill="none" stroke="#d8b456" stroke-width="2" d="M620.5,-578C620.5,-578 589.5,-578 589.5,-578 583.5,-578 577.5,-572 577.5,-566 577.5,-566 577.5,-554 577.5,-554 577.5,-548 583.5,-542 589.5,-542 589.5,-542 620.5,-542 620.5,-542 626.5,-542 632.5,-548 632.5,-554 632.5,-554 632.5,-566 632.5,-566 632.5,-572 626.5,-578 620.5,-578"/>
<text text-anchor="middle" x="605" y="-557.5" font-family="sans" font-size="10.00">execute</text>
</g>
<!-- 3&#45;&gt;2 -->
<g id="edge10" class="edge">
<title>3&#45;&gt;2</title>
<path fill="none" stroke="grey" stroke-width="2" d="M609.82,-541.78C618.3,-509.93 635,-439.51 635,-379 635,-379 635,-379 635,-305 635,-265 635,-218.65 635,-190.08"/>
<polygon fill="grey" stroke="grey" stroke-width="2" points="638.5,-190.05 635,-180.05 631.5,-190.05 638.5,-190.05"/>
</g>
<!-- 13 -->
<g id="node14" class="node">
<title>13</title>
<path fill="none" stroke="#d88556" stroke-width="2" d="M442.5,-487C442.5,-487 371.5,-487 371.5,-487 365.5,-487 359.5,-481 359.5,-475 359.5,-475 359.5,-463 359.5,-463 359.5,-457 365.5,-451 371.5,-451 371.5,-451 442.5,-451 442.5,-451 448.5,-451 454.5,-457 454.5,-463 454.5,-463 454.5,-475 454.5,-475 454.5,-481 448.5,-487 442.5,-487"/>
<text text-anchor="middle" x="407" y="-466.5" font-family="sans" font-size="10.00">prep_dependent</text>
</g>
<!-- 3&#45;&gt;13 -->
<g id="edge21" class="edge">
<title>3&#45;&gt;13</title>
<path fill="none" stroke="grey" stroke-width="2" d="M577.27,-550.44C548.32,-541.08 501.93,-524.86 464,-506 456.09,-502.07 447.89,-497.32 440.26,-492.59"/>
<polygon fill="grey" stroke="grey" stroke-width="2" points="441.93,-489.51 431.61,-487.09 438.17,-495.41 441.93,-489.51"/>
</g>
<!-- 4 -->
<g id="node5" class="node">
<title>4</title>
<path fill="none" stroke="#5682d8" stroke-width="2" d="M645,-669C645,-669 565,-669 565,-669 559,-669 553,-663 553,-657 553,-657 553,-645 553,-645 553,-639 559,-633 565,-633 565,-633 645,-633 645,-633 651,-633 657,-639 657,-645 657,-645 657,-657 657,-657 657,-663 651,-669 645,-669"/>
<text text-anchor="middle" x="605" y="-648.5" font-family="sans" font-size="10.00">prep_independent</text>
</g>
<!-- 4&#45;&gt;3 -->
<g id="edge11" class="edge">
<title>4&#45;&gt;3</title>
<path fill="none" stroke="grey" stroke-width="2" d="M605,-632.84C605,-620.28 605,-602.98 605,-588.5"/>
<polygon fill="grey" stroke="grey" stroke-width="2" points="608.5,-588.11 605,-578.11 601.5,-588.11 608.5,-588.11"/>
</g>
<!-- 5 -->
<g id="node6" class="node">
<title>5</title>
<path fill="none" stroke="#56d89a" stroke-width="2" d="M573.5,-760C573.5,-760 522.5,-760 522.5,-760 516.5,-760 510.5,-754 510.5,-748 510.5,-748 510.5,-736 510.5,-736 510.5,-730 516.5,-724 522.5,-724 522.5,-724 573.5,-724 573.5,-724 579.5,-724 585.5,-730 585.5,-736 585.5,-736 585.5,-748 585.5,-748 585.5,-754 579.5,-760 573.5,-760"/>
<text text-anchor="middle" x="548" y="-739.5" font-family="sans" font-size="10.00">create_case</text>
</g>
<!-- 5&#45;&gt;4 -->
<g id="edge12" class="edge">
<title>5&#45;&gt;4</title>
<path fill="none" stroke="grey" stroke-width="2" d="M558.99,-723.84C567.35,-710.79 578.99,-692.62 588.47,-677.81"/>
<polygon fill="grey" stroke="grey" stroke-width="2" points="591.6,-679.42 594.04,-669.11 585.7,-675.64 591.6,-679.42"/>
</g>
<!-- 6 -->
<g id="node7" class="node">
<title>6</title>
<path fill="none" stroke="#56d8c9" stroke-width="2" d="M603,-870C603,-870 493,-870 493,-870 487,-870 481,-864 481,-858 481,-858 481,-808 481,-808 481,-802 487,-796 493,-796 493,-796 603,-796 603,-796 609,-796 615,-802 615,-808 615,-808 615,-858 615,-858 615,-864 609,-870 603,-870"/>
<text text-anchor="middle" x="548" y="-858" font-family="sans" font-size="10.00">write_caseconfig</text>
<text text-anchor="middle" x="548" y="-847" font-family="sans" font-size="10.00">dependency: 0</text>
<text text-anchor="middle" x="548" y="-836" font-family="sans" font-size="10.00">id: A1</text>
<text text-anchor="middle" x="548" y="-825" font-family="sans" font-size="10.00">pressure_outlet: 100000</text>
<text text-anchor="middle" x="548" y="-814" font-family="sans" font-size="10.00">velocity_inlet_u: 30</text>
<text text-anchor="middle" x="548" y="-803" font-family="sans" font-size="10.00">velocity_inlet_v: 40</text>
</g>
<!-- 6&#45;&gt;5 -->
<g id="edge14" class="edge">
<title>6&#45;&gt;5</title>
<path fill="none" stroke="grey" stroke-width="2" d="M548,-795.8C548,-787.33 548,-778.44 548,-770.43"/>
<polygon fill="grey" stroke="grey" stroke-width="2" points="551.5,-770.16 548,-760.16 544.5,-770.16 551.5,-770.16"/>
</g>
<!-- 7 -->
<g id="node8" class="node">
<title>7</title>
<path fill="none" stroke="#d85656" stroke-width="2" d="M706.5,-760C706.5,-760 615.5,-760 615.5,-760 609.5,-760 603.5,-754 603.5,-748 603.5,-748 603.5,-736 603.5,-736 603.5,-730 609.5,-724 615.5,-724 615.5,-724 706.5,-724 706.5,-724 712.5,-724 718.5,-730 718.5,-736 718.5,-736 718.5,-748 718.5,-748 718.5,-754 712.5,-760 706.5,-760"/>
<text text-anchor="middle" x="661" y="-739.5" font-family="sans" font-size="10.00">touch_independents</text>
</g>
<!-- 7&#45;&gt;4 -->
<g id="edge13" class="edge">
<title>7&#45;&gt;4</title>
<path fill="none" stroke="grey" stroke-width="2" d="M650.2,-723.84C641.99,-710.79 630.56,-692.62 621.24,-677.81"/>
<polygon fill="grey" stroke="grey" stroke-width="2" points="624.05,-675.71 615.76,-669.11 618.13,-679.44 624.05,-675.71"/>
</g>
<!-- 8 -->
<g id="node9" class="node">
<title>8</title>
<path fill="none" stroke="#56b1d8" stroke-width="2" d="M244,-108C244,-108 188,-108 188,-108 182,-108 176,-102 176,-96 176,-96 176,-84 176,-84 176,-78 182,-72 188,-72 188,-72 244,-72 244,-72 250,-72 256,-78 256,-84 256,-84 256,-96 256,-96 256,-102 250,-108 244,-108"/>
<text text-anchor="middle" x="216" y="-87.5" font-family="sans" font-size="10.00">bladeloading</text>
</g>
<!-- 8&#45;&gt;0 -->
<g id="edge2" class="edge">
<title>8&#45;&gt;0</title>
<path fill="none" stroke="grey" stroke-width="2" d="M248.29,-71.88C267.53,-61.67 291.99,-48.7 311.88,-38.16"/>
<polygon fill="grey" stroke="grey" stroke-width="2" points="313.74,-41.13 320.94,-33.35 310.46,-34.94 313.74,-41.13"/>
</g>
<!-- 9 -->
<g id="node10" class="node">
<title>9</title>
<path fill="none" stroke="#70d856" stroke-width="2" d="M297,-180C297,-180 253,-180 253,-180 247,-180 241,-174 241,-168 241,-168 241,-156 241,-156 241,-150 247,-144 253,-144 253,-144 297,-144 297,-144 303,-144 309,-150 309,-156 309,-156 309,-168 309,-168 309,-174 303,-180 297,-180"/>
<text text-anchor="middle" x="275" y="-159.5" font-family="sans" font-size="10.00">create_vtk</text>
</g>
<!-- 9&#45;&gt;8 -->
<g id="edge15" class="edge">
<title>9&#45;&gt;8</title>
<path fill="none" stroke="grey" stroke-width="2" d="M260.42,-143.7C253.34,-135.3 244.72,-125.07 236.95,-115.86"/>
<polygon fill="grey" stroke="grey" stroke-width="2" points="239.54,-113.49 230.42,-108.1 234.19,-118.01 239.54,-113.49"/>
</g>
<!-- 28 -->
<g id="node29" class="node">
<title>28</title>
<path fill="none" stroke="#ced856" stroke-width="2" d="M321.5,-108C321.5,-108 286.5,-108 286.5,-108 280.5,-108 274.5,-102 274.5,-96 274.5,-96 274.5,-84 274.5,-84 274.5,-78 280.5,-72 286.5,-72 286.5,-72 321.5,-72 321.5,-72 327.5,-72 333.5,-78 333.5,-84 333.5,-84 333.5,-96 333.5,-96 333.5,-102 327.5,-108 321.5,-108"/>
<text text-anchor="middle" x="304" y="-87.5" font-family="sans" font-size="10.00">contours</text>
</g>
<!-- 9&#45;&gt;28 -->
<g id="edge37" class="edge">
<title>9&#45;&gt;28</title>
<path fill="none" stroke="grey" stroke-width="2" d="M282.17,-143.7C285.43,-135.81 289.37,-126.3 293,-117.55"/>
<polygon fill="grey" stroke="grey" stroke-width="2" points="296.32,-118.68 296.91,-108.1 289.85,-116 296.32,-118.68"/>
</g>
<!-- 10 -->
<g id="node11" class="node">
<title>10</title>
<path fill="none" stroke="#d8b456" stroke-width="2" d="M290.5,-396C290.5,-396 259.5,-396 259.5,-396 253.5,-396 247.5,-390 247.5,-384 247.5,-384 247.5,-372 247.5,-372 247.5,-366 253.5,-360 259.5,-360 259.5,-360 290.5,-360 290.5,-360 296.5,-360 302.5,-366 302.5,-372 302.5,-372 302.5,-384 302.5,-384 302.5,-390 296.5,-396 290.5,-396"/>
<text text-anchor="middle" x="275" y="-375.5" font-family="sans" font-size="10.00">execute</text>
</g>
<!-- 10&#45;&gt;9 -->
<g id="edge16" class="edge">
<title>10&#45;&gt;9</title>
<path fill="none" stroke="grey" stroke-width="2" d="M275,-359.85C275,-322.83 275,-235.18 275,-190.39"/>
<polygon fill="grey" stroke="grey" stroke-width="2" points="278.5,-190.23 275,-180.23 271.5,-190.23 278.5,-190.23"/>
</g>
<!-- 20 -->
<g id="node21" class="node">
<title>20</title>
<path fill="none" stroke="#d88556" stroke-width="2" d="M194.5,-324C194.5,-324 123.5,-324 123.5,-324 117.5,-324 111.5,-318 111.5,-312 111.5,-312 111.5,-300 111.5,-300 111.5,-294 117.5,-288 123.5,-288 123.5,-288 194.5,-288 194.5,-288 200.5,-288 206.5,-294 206.5,-300 206.5,-300 206.5,-312 206.5,-312 206.5,-318 200.5,-324 194.5,-324"/>
<text text-anchor="middle" x="159" y="-303.5" font-family="sans" font-size="10.00">prep_dependent</text>
</g>
<!-- 10&#45;&gt;20 -->
<g id="edge28" class="edge">
<title>10&#45;&gt;20</title>
<path fill="none" stroke="grey" stroke-width="2" d="M247.22,-360.23C231.95,-351.02 212.8,-339.47 196.25,-329.48"/>
<polygon fill="grey" stroke="grey" stroke-width="2" points="197.73,-326.29 187.36,-324.12 194.12,-332.28 197.73,-326.29"/>
</g>
<!-- 26 -->
<g id="node27" class="node">
<title>26</title>
<path fill="none" stroke="#d88556" stroke-width="2" d="M397.5,-324C397.5,-324 326.5,-324 326.5,-324 320.5,-324 314.5,-318 314.5,-312 314.5,-312 314.5,-300 314.5,-300 314.5,-294 320.5,-288 326.5,-288 326.5,-288 397.5,-288 397.5,-288 403.5,-288 409.5,-294 409.5,-300 409.5,-300 409.5,-312 409.5,-312 409.5,-318 403.5,-324 397.5,-324"/>
<text text-anchor="middle" x="362" y="-303.5" font-family="sans" font-size="10.00">prep_dependent</text>
</g>
<!-- 10&#45;&gt;26 -->
<g id="edge35" class="edge">
<title>10&#45;&gt;26</title>
<path fill="none" stroke="grey" stroke-width="2" d="M296.51,-359.7C307.46,-350.88 320.95,-340.03 332.82,-330.47"/>
<polygon fill="grey" stroke="grey" stroke-width="2" points="335.14,-333.1 340.74,-324.1 330.76,-327.65 335.14,-333.1"/>
</g>
<!-- 11 -->
<g id="node12" class="node">
<title>11</title>
<path fill="none" stroke="#56d89a" stroke-width="2" d="M448.5,-578C448.5,-578 397.5,-578 397.5,-578 391.5,-578 385.5,-572 385.5,-566 385.5,-566 385.5,-554 385.5,-554 385.5,-548 391.5,-542 397.5,-542 397.5,-542 448.5,-542 448.5,-542 454.5,-542 460.5,-548 460.5,-554 460.5,-554 460.5,-566 460.5,-566 460.5,-572 454.5,-578 448.5,-578"/>
<text text-anchor="middle" x="423" y="-557.5" font-family="sans" font-size="10.00">create_case</text>
</g>
<!-- 11&#45;&gt;13 -->
<g id="edge19" class="edge">
<title>11&#45;&gt;13</title>
<path fill="none" stroke="grey" stroke-width="2" d="M419.92,-541.84C417.64,-529.16 414.49,-511.64 411.87,-497.08"/>
<polygon fill="grey" stroke="grey" stroke-width="2" points="415.29,-496.33 410.08,-487.11 408.4,-497.57 415.29,-496.33"/>
</g>
<!-- 12 -->
<g id="node13" class="node">
<title>12</title>
<path fill="none" stroke="#56d8c9" stroke-width="2" d="M478,-688C478,-688 368,-688 368,-688 362,-688 356,-682 356,-676 356,-676 356,-626 356,-626 356,-620 362,-614 368,-614 368,-614 478,-614 478,-614 484,-614 490,-620 490,-626 490,-626 490,-676 490,-676 490,-682 484,-688 478,-688"/>
<text text-anchor="middle" x="423" y="-676" font-family="sans" font-size="10.00">write_caseconfig</text>
<text text-anchor="middle" x="423" y="-665" font-family="sans" font-size="10.00">dependency: A1</text>
<text text-anchor="middle" x="423" y="-654" font-family="sans" font-size="10.00">id: A2</text>
<text text-anchor="middle" x="423" y="-643" font-family="sans" font-size="10.00">pressure_outlet: 100000</text>
<text text-anchor="middle" x="423" y="-632" font-family="sans" font-size="10.00">velocity_inlet_u: 30</text>
<text text-anchor="middle" x="423" y="-621" font-family="sans" font-size="10.00">velocity_inlet_v: 40</text>
</g>
<!-- 12&#45;&gt;11 -->
<g id="edge18" class="edge">
<title>12&#45;&gt;11</title>
<path fill="none" stroke="grey" stroke-width="2" d="M423,-613.8C423,-605.33 423,-596.44 423,-588.43"/>
<polygon fill="grey" stroke="grey" stroke-width="2" points="426.5,-588.16 423,-578.16 419.5,-588.16 426.5,-588.16"/>
</g>
<!-- 13&#45;&gt;10 -->
<g id="edge17" class="edge">
<title>13&#45;&gt;10</title>
<path fill="none" stroke="grey" stroke-width="2" d="M381.55,-450.84C360.82,-436.87 331.39,-417.02 308.7,-401.72"/>
<polygon fill="grey" stroke="grey" stroke-width="2" points="310.62,-398.8 300.37,-396.11 306.71,-404.6 310.62,-398.8"/>
</g>
<!-- 14 -->
<g id="node15" class="node">
<title>14</title>
<path fill="none" stroke="#9fd856" stroke-width="2" d="M355,-578C355,-578 273,-578 273,-578 267,-578 261,-572 261,-566 261,-566 261,-554 261,-554 261,-548 267,-542 273,-542 273,-542 355,-542 355,-542 361,-542 367,-548 367,-554 367,-554 367,-566 367,-566 367,-572 361,-578 355,-578"/>
<text text-anchor="middle" x="314" y="-557.5" font-family="sans" font-size="10.00">touch_dependents</text>
</g>
<!-- 14&#45;&gt;13 -->
<g id="edge20" class="edge">
<title>14&#45;&gt;13</title>
<path fill="none" stroke="grey" stroke-width="2" d="M331.93,-541.84C346.08,-528.3 366,-509.24 381.76,-494.15"/>
<polygon fill="grey" stroke="grey" stroke-width="2" points="384.32,-496.55 389.12,-487.11 379.48,-491.49 384.32,-496.55"/>
</g>
<!-- 14&#45;&gt;20 -->
<g id="edge27" class="edge">
<title>14&#45;&gt;20</title>
<path fill="none" stroke="grey" stroke-width="2" d="M260.72,-557.98C221.76,-554.08 171.3,-541.81 145,-506 107.41,-454.81 130.85,-374.85 147.18,-333.6"/>
<polygon fill="grey" stroke="grey" stroke-width="2" points="150.47,-334.8 151.04,-324.22 144,-332.14 150.47,-334.8"/>
</g>
<!-- 14&#45;&gt;26 -->
<g id="edge34" class="edge">
<title>14&#45;&gt;26</title>
<path fill="none" stroke="grey" stroke-width="2" d="M317.3,-541.68C325.52,-498.51 346.98,-385.86 356.87,-333.93"/>
<polygon fill="grey" stroke="grey" stroke-width="2" points="360.31,-334.59 358.74,-324.11 353.43,-333.28 360.31,-334.59"/>
</g>
<!-- 15 -->
<g id="node16" class="node">
<title>15</title>
<path fill="none" stroke="#56b1d8" stroke-width="2" d="M68,-108C68,-108 12,-108 12,-108 6,-108 0,-102 0,-96 0,-96 0,-84 0,-84 0,-78 6,-72 12,-72 12,-72 68,-72 68,-72 74,-72 80,-78 80,-84 80,-84 80,-96 80,-96 80,-102 74,-108 68,-108"/>
<text text-anchor="middle" x="40" y="-87.5" font-family="sans" font-size="10.00">bladeloading</text>
</g>
<!-- 15&#45;&gt;0 -->
<g id="edge3" class="edge">
<title>15&#45;&gt;0</title>
<path fill="none" stroke="grey" stroke-width="2" d="M80.24,-74.57C83.19,-73.65 86.13,-72.79 89,-72 166.89,-50.62 260.09,-33.59 310.74,-25.03"/>
<polygon fill="grey" stroke="grey" stroke-width="2" points="311.59,-28.44 320.88,-23.33 310.44,-21.53 311.59,-28.44"/>
</g>
<!-- 16 -->
<g id="node17" class="node">
<title>16</title>
<path fill="none" stroke="#70d856" stroke-width="2" d="M150,-180C150,-180 106,-180 106,-180 100,-180 94,-174 94,-168 94,-168 94,-156 94,-156 94,-150 100,-144 106,-144 106,-144 150,-144 150,-144 156,-144 162,-150 162,-156 162,-156 162,-168 162,-168 162,-174 156,-180 150,-180"/>
<text text-anchor="middle" x="128" y="-159.5" font-family="sans" font-size="10.00">create_vtk</text>
</g>
<!-- 16&#45;&gt;15 -->
<g id="edge22" class="edge">
<title>16&#45;&gt;15</title>
<path fill="none" stroke="grey" stroke-width="2" d="M106.25,-143.7C95.16,-134.88 81.53,-124.03 69.51,-114.47"/>
<polygon fill="grey" stroke="grey" stroke-width="2" points="71.51,-111.59 61.5,-108.1 67.15,-117.07 71.51,-111.59"/>
</g>
<!-- 29 -->
<g id="node30" class="node">
<title>29</title>
<path fill="none" stroke="#ced856" stroke-width="2" d="M145.5,-108C145.5,-108 110.5,-108 110.5,-108 104.5,-108 98.5,-102 98.5,-96 98.5,-96 98.5,-84 98.5,-84 98.5,-78 104.5,-72 110.5,-72 110.5,-72 145.5,-72 145.5,-72 151.5,-72 157.5,-78 157.5,-84 157.5,-84 157.5,-96 157.5,-96 157.5,-102 151.5,-108 145.5,-108"/>
<text text-anchor="middle" x="128" y="-87.5" font-family="sans" font-size="10.00">contours</text>
</g>
<!-- 16&#45;&gt;29 -->
<g id="edge38" class="edge">
<title>16&#45;&gt;29</title>
<path fill="none" stroke="grey" stroke-width="2" d="M128,-143.7C128,-135.98 128,-126.71 128,-118.11"/>
<polygon fill="grey" stroke="grey" stroke-width="2" points="131.5,-118.1 128,-108.1 124.5,-118.1 131.5,-118.1"/>
</g>
<!-- 17 -->
<g id="node18" class="node">
<title>17</title>
<path fill="none" stroke="#d8b456" stroke-width="2" d="M152.5,-252C152.5,-252 121.5,-252 121.5,-252 115.5,-252 109.5,-246 109.5,-240 109.5,-240 109.5,-228 109.5,-228 109.5,-222 115.5,-216 121.5,-216 121.5,-216 152.5,-216 152.5,-216 158.5,-216 164.5,-222 164.5,-228 164.5,-228 164.5,-240 164.5,-240 164.5,-246 158.5,-252 152.5,-252"/>
<text text-anchor="middle" x="137" y="-231.5" font-family="sans" font-size="10.00">execute</text>
</g>
<!-- 17&#45;&gt;16 -->
<g id="edge23" class="edge">
<title>17&#45;&gt;16</title>
<path fill="none" stroke="grey" stroke-width="2" d="M134.78,-215.7C133.78,-207.98 132.59,-198.71 131.49,-190.11"/>
<polygon fill="grey" stroke="grey" stroke-width="2" points="134.95,-189.58 130.2,-180.1 128,-190.47 134.95,-189.58"/>
</g>
<!-- 18 -->
<g id="node19" class="node">
<title>18</title>
<path fill="none" stroke="#56d89a" stroke-width="2" d="M217.5,-396C217.5,-396 166.5,-396 166.5,-396 160.5,-396 154.5,-390 154.5,-384 154.5,-384 154.5,-372 154.5,-372 154.5,-366 160.5,-360 166.5,-360 166.5,-360 217.5,-360 217.5,-360 223.5,-360 229.5,-366 229.5,-372 229.5,-372 229.5,-384 229.5,-384 229.5,-390 223.5,-396 217.5,-396"/>
<text text-anchor="middle" x="192" y="-375.5" font-family="sans" font-size="10.00">create_case</text>
</g>
<!-- 18&#45;&gt;20 -->
<g id="edge26" class="edge">
<title>18&#45;&gt;20</title>
<path fill="none" stroke="grey" stroke-width="2" d="M183.84,-359.7C180.09,-351.73 175.55,-342.1 171.38,-333.26"/>
<polygon fill="grey" stroke="grey" stroke-width="2" points="174.49,-331.66 167.06,-324.1 168.16,-334.64 174.49,-331.66"/>
</g>
<!-- 19 -->
<g id="node20" class="node">
<title>19</title>
<path fill="none" stroke="#56d8c9" stroke-width="2" d="M276,-506C276,-506 166,-506 166,-506 160,-506 154,-500 154,-494 154,-494 154,-444 154,-444 154,-438 160,-432 166,-432 166,-432 276,-432 276,-432 282,-432 288,-438 288,-444 288,-444 288,-494 288,-494 288,-500 282,-506 276,-506"/>
<text text-anchor="middle" x="221" y="-494" font-family="sans" font-size="10.00">write_caseconfig</text>
<text text-anchor="middle" x="221" y="-483" font-family="sans" font-size="10.00">dependency: A2</text>
<text text-anchor="middle" x="221" y="-472" font-family="sans" font-size="10.00">id: A3</text>
<text text-anchor="middle" x="221" y="-461" font-family="sans" font-size="10.00">pressure_outlet: 100000</text>
<text text-anchor="middle" x="221" y="-450" font-family="sans" font-size="10.00">velocity_inlet_u: 30</text>
<text text-anchor="middle" x="221" y="-439" font-family="sans" font-size="10.00">velocity_inlet_v: 40</text>
</g>
<!-- 19&#45;&gt;18 -->
<g id="edge25" class="edge">
<title>19&#45;&gt;18</title>
<path fill="none" stroke="grey" stroke-width="2" d="M209.2,-431.8C206.38,-423.14 203.42,-414.04 200.76,-405.88"/>
<polygon fill="grey" stroke="grey" stroke-width="2" points="204.02,-404.58 197.59,-396.16 197.36,-406.75 204.02,-404.58"/>
</g>
<!-- 20&#45;&gt;17 -->
<g id="edge24" class="edge">
<title>20&#45;&gt;17</title>
<path fill="none" stroke="grey" stroke-width="2" d="M153.56,-287.7C151.11,-279.9 148.16,-270.51 145.43,-261.83"/>
<polygon fill="grey" stroke="grey" stroke-width="2" points="148.71,-260.59 142.38,-252.1 142.04,-262.69 148.71,-260.59"/>
</g>
<!-- 21 -->
<g id="node22" class="node">
<title>21</title>
<path fill="none" stroke="#56b1d8" stroke-width="2" d="M420,-108C420,-108 364,-108 364,-108 358,-108 352,-102 352,-96 352,-96 352,-84 352,-84 352,-78 358,-72 364,-72 364,-72 420,-72 420,-72 426,-72 432,-78 432,-84 432,-84 432,-96 432,-96 432,-102 426,-108 420,-108"/>
<text text-anchor="middle" x="392" y="-87.5" font-family="sans" font-size="10.00">bladeloading</text>
</g>
<!-- 21&#45;&gt;0 -->
<g id="edge4" class="edge">
<title>21&#45;&gt;0</title>
<path fill="none" stroke="grey" stroke-width="2" d="M381.12,-71.7C376.01,-63.56 369.8,-53.69 364.16,-44.7"/>
<polygon fill="grey" stroke="grey" stroke-width="2" points="367.04,-42.71 358.75,-36.1 361.11,-46.43 367.04,-42.71"/>
</g>
<!-- 22 -->
<g id="node23" class="node">
<title>22</title>
<path fill="none" stroke="#70d856" stroke-width="2" d="M414,-180C414,-180 370,-180 370,-180 364,-180 358,-174 358,-168 358,-168 358,-156 358,-156 358,-150 364,-144 370,-144 370,-144 414,-144 414,-144 420,-144 426,-150 426,-156 426,-156 426,-168 426,-168 426,-174 420,-180 414,-180"/>
<text text-anchor="middle" x="392" y="-159.5" font-family="sans" font-size="10.00">create_vtk</text>
</g>
<!-- 22&#45;&gt;21 -->
<g id="edge29" class="edge">
<title>22&#45;&gt;21</title>
<path fill="none" stroke="grey" stroke-width="2" d="M392,-143.7C392,-135.98 392,-126.71 392,-118.11"/>
<polygon fill="grey" stroke="grey" stroke-width="2" points="395.5,-118.1 392,-108.1 388.5,-118.1 395.5,-118.1"/>
</g>
<!-- 30 -->
<g id="node31" class="node">
<title>30</title>
<path fill="none" stroke="#ced856" stroke-width="2" d="M497.5,-108C497.5,-108 462.5,-108 462.5,-108 456.5,-108 450.5,-102 450.5,-96 450.5,-96 450.5,-84 450.5,-84 450.5,-78 456.5,-72 462.5,-72 462.5,-72 497.5,-72 497.5,-72 503.5,-72 509.5,-78 509.5,-84 509.5,-84 509.5,-96 509.5,-96 509.5,-102 503.5,-108 497.5,-108"/>
<text text-anchor="middle" x="480" y="-87.5" font-family="sans" font-size="10.00">contours</text>
</g>
<!-- 22&#45;&gt;30 -->
<g id="edge39" class="edge">
<title>22&#45;&gt;30</title>
<path fill="none" stroke="grey" stroke-width="2" d="M413.75,-143.7C424.84,-134.88 438.47,-124.03 450.49,-114.47"/>
<polygon fill="grey" stroke="grey" stroke-width="2" points="452.85,-117.07 458.5,-108.1 448.49,-111.59 452.85,-117.07"/>
</g>
<!-- 23 -->
<g id="node24" class="node">
<title>23</title>
<path fill="none" stroke="#d8b456" stroke-width="2" d="M387.5,-252C387.5,-252 356.5,-252 356.5,-252 350.5,-252 344.5,-246 344.5,-240 344.5,-240 344.5,-228 344.5,-228 344.5,-222 350.5,-216 356.5,-216 356.5,-216 387.5,-216 387.5,-216 393.5,-216 399.5,-222 399.5,-228 399.5,-228 399.5,-240 399.5,-240 399.5,-246 393.5,-252 387.5,-252"/>
<text text-anchor="middle" x="372" y="-231.5" font-family="sans" font-size="10.00">execute</text>
</g>
<!-- 23&#45;&gt;22 -->
<g id="edge30" class="edge">
<title>23&#45;&gt;22</title>
<path fill="none" stroke="grey" stroke-width="2" d="M376.94,-215.7C379.17,-207.9 381.85,-198.51 384.33,-189.83"/>
<polygon fill="grey" stroke="grey" stroke-width="2" points="387.73,-190.68 387.11,-180.1 381,-188.76 387.73,-190.68"/>
</g>
<!-- 24 -->
<g id="node25" class="node">
<title>24</title>
<path fill="none" stroke="#56d89a" stroke-width="2" d="M494.5,-396C494.5,-396 443.5,-396 443.5,-396 437.5,-396 431.5,-390 431.5,-384 431.5,-384 431.5,-372 431.5,-372 431.5,-366 437.5,-360 443.5,-360 443.5,-360 494.5,-360 494.5,-360 500.5,-360 506.5,-366 506.5,-372 506.5,-372 506.5,-384 506.5,-384 506.5,-390 500.5,-396 494.5,-396"/>
<text text-anchor="middle" x="469" y="-375.5" font-family="sans" font-size="10.00">create_case</text>
</g>
<!-- 24&#45;&gt;26 -->
<g id="edge33" class="edge">
<title>24&#45;&gt;26</title>
<path fill="none" stroke="grey" stroke-width="2" d="M442.82,-359.88C428.96,-350.81 411.76,-339.55 396.79,-329.76"/>
<polygon fill="grey" stroke="grey" stroke-width="2" points="398.56,-326.74 388.28,-324.19 394.73,-332.59 398.56,-326.74"/>
</g>
<!-- 25 -->
<g id="node26" class="node">
<title>25</title>
<path fill="none" stroke="#56d8c9" stroke-width="2" d="M595,-506C595,-506 485,-506 485,-506 479,-506 473,-500 473,-494 473,-494 473,-444 473,-444 473,-438 479,-432 485,-432 485,-432 595,-432 595,-432 601,-432 607,-438 607,-444 607,-444 607,-494 607,-494 607,-500 601,-506 595,-506"/>
<text text-anchor="middle" x="540" y="-494" font-family="sans" font-size="10.00">write_caseconfig</text>
<text text-anchor="middle" x="540" y="-483" font-family="sans" font-size="10.00">dependency: A2</text>
<text text-anchor="middle" x="540" y="-472" font-family="sans" font-size="10.00">id: A4</text>
<text text-anchor="middle" x="540" y="-461" font-family="sans" font-size="10.00">pressure_outlet: 100000</text>
<text text-anchor="middle" x="540" y="-450" font-family="sans" font-size="10.00">velocity_inlet_u: 30</text>
<text text-anchor="middle" x="540" y="-439" font-family="sans" font-size="10.00">velocity_inlet_v: 40</text>
</g>
<!-- 25&#45;&gt;24 -->
<g id="edge32" class="edge">
<title>25&#45;&gt;24</title>
<path fill="none" stroke="grey" stroke-width="2" d="M511.12,-431.8C503.67,-422.46 495.82,-412.62 488.94,-404"/>
<polygon fill="grey" stroke="grey" stroke-width="2" points="491.66,-401.79 482.69,-396.16 486.19,-406.16 491.66,-401.79"/>
</g>
<!-- 26&#45;&gt;23 -->
<g id="edge31" class="edge">
<title>26&#45;&gt;23</title>
<path fill="none" stroke="grey" stroke-width="2" d="M364.47,-287.7C365.57,-279.98 366.9,-270.71 368.13,-262.11"/>
<polygon fill="grey" stroke="grey" stroke-width="2" points="371.61,-262.5 369.56,-252.1 364.68,-261.51 371.61,-262.5"/>
</g>
<!-- 27&#45;&gt;0 -->
<g id="edge5" class="edge">
<title>27&#45;&gt;0</title>
<path fill="none" stroke="grey" stroke-width="2" d="M626.44,-75.33C623.29,-74.11 620.1,-72.97 617,-72 536.24,-46.77 437.94,-31.02 385.39,-23.76"/>
<polygon fill="grey" stroke="grey" stroke-width="2" points="385.59,-20.25 375.21,-22.37 384.65,-27.19 385.59,-20.25"/>
</g>
<!-- 28&#45;&gt;0 -->
<g id="edge6" class="edge">
<title>28&#45;&gt;0</title>
<path fill="none" stroke="grey" stroke-width="2" d="M314.88,-71.7C319.99,-63.56 326.2,-53.69 331.84,-44.7"/>
<polygon fill="grey" stroke="grey" stroke-width="2" points="334.89,-46.43 337.25,-36.1 328.96,-42.71 334.89,-46.43"/>
</g>
<!-- 29&#45;&gt;0 -->
<g id="edge7" class="edge">
<title>29&#45;&gt;0</title>
<path fill="none" stroke="grey" stroke-width="2" d="M157.65,-75.61C160.79,-74.34 163.94,-73.11 167,-72 216.1,-54.19 274.28,-38 311.16,-28.32"/>
<polygon fill="grey" stroke="grey" stroke-width="2" points="312.18,-31.68 320.98,-25.77 310.42,-24.9 312.18,-31.68"/>
</g>
<!-- 30&#45;&gt;0 -->
<g id="edge8" class="edge">
<title>30&#45;&gt;0</title>
<path fill="none" stroke="grey" stroke-width="2" d="M450.38,-73.29C430.78,-62.9 404.95,-49.2 384.15,-38.17"/>
<polygon fill="grey" stroke="grey" stroke-width="2" points="385.75,-35.06 375.28,-33.46 382.47,-41.24 385.75,-35.06"/>
</g>
</g>
</svg>
