<?xml version="1.0" encoding="UTF-8" standalone="no"?>
<!DOCTYPE svg PUBLIC "-//W3C//DTD SVG 1.1//EN"
 "http://www.w3.org/Graphics/SVG/1.1/DTD/svg11.dtd">
<!-- Generated by graphviz version 2.43.0 (0)
 -->
<!-- Title: snakemake_dag Pages: 1 -->
<svg width="827pt" height="514pt"
 viewBox="0.00 0.00 827.00 514.00" xmlns="http://www.w3.org/2000/svg" xmlns:xlink="http://www.w3.org/1999/xlink">
<g id="graph0" class="graph" transform="scale(1 1) rotate(0) translate(4 510)">
<title>snakemake_dag</title>
<polygon fill="white" stroke="transparent" points="-4,4 -4,-510 823,-510 823,4 -4,4"/>
<!-- 0 -->
<g id="node1" class="node">
<title>0</title>
<path fill="none" stroke="#d85656" stroke-width="2" d="M426.5,-36C426.5,-36 396.5,-36 396.5,-36 390.5,-36 384.5,-30 384.5,-24 384.5,-24 384.5,-12 384.5,-12 384.5,-6 390.5,0 396.5,0 396.5,0 426.5,0 426.5,0 432.5,0 438.5,-6 438.5,-12 438.5,-12 438.5,-24 438.5,-24 438.5,-30 432.5,-36 426.5,-36"/>
<text text-anchor="middle" x="411.5" y="-15.5" font-family="sans" font-size="10.00">all</text>
</g>
<!-- 1 -->
<g id="node2" class="node">
<title>1</title>
<path fill="none" stroke="#8fd856" stroke-width="2" d="M145.5,-108C145.5,-108 89.5,-108 89.5,-108 83.5,-108 77.5,-102 77.5,-96 77.5,-96 77.5,-84 77.5,-84 77.5,-78 83.5,-72 89.5,-72 89.5,-72 145.5,-72 145.5,-72 151.5,-72 157.5,-78 157.5,-84 157.5,-84 157.5,-96 157.5,-96 157.5,-102 151.5,-108 145.5,-108"/>
<text text-anchor="middle" x="117.5" y="-87.5" font-family="sans" font-size="10.00">bladeloading</text>
</g>
<!-- 1&#45;&gt;0 -->
<g id="edge1" class="edge">
<title>1&#45;&gt;0</title>
<path fill="none" stroke="grey" stroke-width="2" d="M157.75,-74.6C160.7,-73.68 163.64,-72.8 166.5,-72 239.3,-51.58 326.14,-34.46 374.43,-25.57"/>
<polygon fill="grey" stroke="grey" stroke-width="2" points="375.2,-28.99 384.41,-23.75 373.95,-22.1 375.2,-28.99"/>
</g>
<!-- 2 -->
<g id="node3" class="node">
<title>2</title>
<path fill="none" stroke="#56d86b" stroke-width="2" d="M139.5,-180C139.5,-180 95.5,-180 95.5,-180 89.5,-180 83.5,-174 83.5,-168 83.5,-168 83.5,-156 83.5,-156 83.5,-150 89.5,-144 95.5,-144 95.5,-144 139.5,-144 139.5,-144 145.5,-144 151.5,-150 151.5,-156 151.5,-156 151.5,-168 151.5,-168 151.5,-174 145.5,-180 139.5,-180"/>
<text text-anchor="middle" x="117.5" y="-159.5" font-family="sans" font-size="10.00">create_vtk</text>
</g>
<!-- 2&#45;&gt;1 -->
<g id="edge10" class="edge">
<title>2&#45;&gt;1</title>
<path fill="none" stroke="grey" stroke-width="2" d="M117.5,-143.7C117.5,-135.98 117.5,-126.71 117.5,-118.11"/>
<polygon fill="grey" stroke="grey" stroke-width="2" points="121,-118.1 117.5,-108.1 114,-118.1 121,-118.1"/>
</g>
<!-- 20 -->
<g id="node21" class="node">
<title>20</title>
<path fill="none" stroke="#56a9d8" stroke-width="2" d="M47,-108C47,-108 12,-108 12,-108 6,-108 0,-102 0,-96 0,-96 0,-84 0,-84 0,-78 6,-72 12,-72 12,-72 47,-72 47,-72 53,-72 59,-78 59,-84 59,-84 59,-96 59,-96 59,-102 53,-108 47,-108"/>
<text text-anchor="middle" x="29.5" y="-87.5" font-family="sans" font-size="10.00">contours</text>
</g>
<!-- 2&#45;&gt;20 -->
<g id="edge28" class="edge">
<title>2&#45;&gt;20</title>
<path fill="none" stroke="grey" stroke-width="2" d="M95.75,-143.7C84.66,-134.88 71.03,-124.03 59.01,-114.47"/>
<polygon fill="grey" stroke="grey" stroke-width="2" points="61.01,-111.59 51,-108.1 56.65,-117.07 61.01,-111.59"/>
</g>
<!-- 3 -->
<g id="node4" class="node">
<title>3</title>
<path fill="none" stroke="#68d856" stroke-width="2" d="M234,-252C234,-252 203,-252 203,-252 197,-252 191,-246 191,-240 191,-240 191,-228 191,-228 191,-222 197,-216 203,-216 203,-216 234,-216 234,-216 240,-216 246,-222 246,-228 246,-228 246,-240 246,-240 246,-246 240,-252 234,-252"/>
<text text-anchor="middle" x="218.5" y="-231.5" font-family="sans" font-size="10.00">execute</text>
</g>
<!-- 3&#45;&gt;2 -->
<g id="edge11" class="edge">
<title>3&#45;&gt;2</title>
<path fill="none" stroke="grey" stroke-width="2" d="M193.79,-215.88C180.83,-206.89 164.77,-195.76 150.73,-186.03"/>
<polygon fill="grey" stroke="grey" stroke-width="2" points="152.52,-183.01 142.3,-180.19 148.53,-188.76 152.52,-183.01"/>
</g>
<!-- 24 -->
<g id="node25" class="node">
<title>24</title>
<path fill="none" stroke="#56d892" stroke-width="2" d="M247,-180C247,-180 190,-180 190,-180 184,-180 178,-174 178,-168 178,-168 178,-156 178,-156 178,-150 184,-144 190,-144 190,-144 247,-144 247,-144 253,-144 259,-150 259,-156 259,-156 259,-168 259,-168 259,-174 253,-180 247,-180"/>
<text text-anchor="middle" x="218.5" y="-159.5" font-family="sans" font-size="10.00">log_residuals</text>
</g>
<!-- 3&#45;&gt;24 -->
<g id="edge32" class="edge">
<title>3&#45;&gt;24</title>
<path fill="none" stroke="grey" stroke-width="2" d="M218.5,-215.7C218.5,-207.98 218.5,-198.71 218.5,-190.11"/>
<polygon fill="grey" stroke="grey" stroke-width="2" points="222,-190.1 218.5,-180.1 215,-190.1 222,-190.1"/>
</g>
<!-- 4 -->
<g id="node5" class="node">
<title>4</title>
<path fill="none" stroke="#567bd8" stroke-width="2" d="M295.5,-324C295.5,-324 215.5,-324 215.5,-324 209.5,-324 203.5,-318 203.5,-312 203.5,-312 203.5,-300 203.5,-300 203.5,-294 209.5,-288 215.5,-288 215.5,-288 295.5,-288 295.5,-288 301.5,-288 307.5,-294 307.5,-300 307.5,-300 307.5,-312 307.5,-312 307.5,-318 301.5,-324 295.5,-324"/>
<text text-anchor="middle" x="255.5" y="-303.5" font-family="sans" font-size="10.00">prep_independent</text>
</g>
<!-- 4&#45;&gt;3 -->
<g id="edge12" class="edge">
<title>4&#45;&gt;3</title>
<path fill="none" stroke="grey" stroke-width="2" d="M246.35,-287.7C242.1,-279.64 236.94,-269.89 232.23,-260.98"/>
<polygon fill="grey" stroke="grey" stroke-width="2" points="235.31,-259.31 227.54,-252.1 229.12,-262.58 235.31,-259.31"/>
</g>
<!-- 5 -->
<g id="node6" class="node">
<title>5</title>
<path fill="none" stroke="#d8cb56" stroke-width="2" d="M281,-396C281,-396 230,-396 230,-396 224,-396 218,-390 218,-384 218,-384 218,-372 218,-372 218,-366 224,-360 230,-360 230,-360 281,-360 281,-360 287,-360 293,-366 293,-372 293,-372 293,-384 293,-384 293,-390 287,-396 281,-396"/>
<text text-anchor="middle" x="255.5" y="-375.5" font-family="sans" font-size="10.00">create_case</text>
</g>
<!-- 5&#45;&gt;4 -->
<g id="edge13" class="edge">
<title>5&#45;&gt;4</title>
<path fill="none" stroke="grey" stroke-width="2" d="M255.5,-359.7C255.5,-351.98 255.5,-342.71 255.5,-334.11"/>
<polygon fill="grey" stroke="grey" stroke-width="2" points="259,-334.1 255.5,-324.1 252,-334.1 259,-334.1"/>
</g>
<!-- 6 -->
<g id="node7" class="node">
<title>6</title>
<path fill="none" stroke="#b6d856" stroke-width="2" d="M310.5,-506C310.5,-506 200.5,-506 200.5,-506 194.5,-506 188.5,-500 188.5,-494 188.5,-494 188.5,-444 188.5,-444 188.5,-438 194.5,-432 200.5,-432 200.5,-432 310.5,-432 310.5,-432 316.5,-432 322.5,-438 322.5,-444 322.5,-444 322.5,-494 322.5,-494 322.5,-500 316.5,-506 310.5,-506"/>
<text text-anchor="middle" x="255.5" y="-494" font-family="sans" font-size="10.00">write_caseconfig</text>
<text text-anchor="middle" x="255.5" y="-483" font-family="sans" font-size="10.00">dependency: 0</text>
<text text-anchor="middle" x="255.5" y="-472" font-family="sans" font-size="10.00">id: A1</text>
<text text-anchor="middle" x="255.5" y="-461" font-family="sans" font-size="10.00">pressure_outlet: 100000</text>
<text text-anchor="middle" x="255.5" y="-450" font-family="sans" font-size="10.00">velocity_inlet_u: 30</text>
<text text-anchor="middle" x="255.5" y="-439" font-family="sans" font-size="10.00">velocity_inlet_v: 40</text>
</g>
<!-- 6&#45;&gt;5 -->
<g id="edge15" class="edge">
<title>6&#45;&gt;5</title>
<path fill="none" stroke="grey" stroke-width="2" d="M255.5,-431.8C255.5,-423.33 255.5,-414.44 255.5,-406.43"/>
<polygon fill="grey" stroke="grey" stroke-width="2" points="259,-406.16 255.5,-396.16 252,-406.16 259,-406.16"/>
</g>
<!-- 7 -->
<g id="node8" class="node">
<title>7</title>
<path fill="none" stroke="#56d0d8" stroke-width="2" d="M418,-396C418,-396 327,-396 327,-396 321,-396 315,-390 315,-384 315,-384 315,-372 315,-372 315,-366 321,-360 327,-360 327,-360 418,-360 418,-360 424,-360 430,-366 430,-372 430,-372 430,-384 430,-384 430,-390 424,-396 418,-396"/>
<text text-anchor="middle" x="372.5" y="-375.5" font-family="sans" font-size="10.00">touch_independents</text>
</g>
<!-- 7&#45;&gt;4 -->
<g id="edge14" class="edge">
<title>7&#45;&gt;4</title>
<path fill="none" stroke="grey" stroke-width="2" d="M343.88,-359.88C328.58,-350.72 309.56,-339.34 293.08,-329.48"/>
<polygon fill="grey" stroke="grey" stroke-width="2" points="294.61,-326.32 284.23,-324.19 291.02,-332.33 294.61,-326.32"/>
</g>
<!-- 11 -->
<g id="node12" class="node">
<title>11</title>
<path fill="none" stroke="#567bd8" stroke-width="2" d="M435.5,-324C435.5,-324 355.5,-324 355.5,-324 349.5,-324 343.5,-318 343.5,-312 343.5,-312 343.5,-300 343.5,-300 343.5,-294 349.5,-288 355.5,-288 355.5,-288 435.5,-288 435.5,-288 441.5,-288 447.5,-294 447.5,-300 447.5,-300 447.5,-312 447.5,-312 447.5,-318 441.5,-324 435.5,-324"/>
<text text-anchor="middle" x="395.5" y="-303.5" font-family="sans" font-size="10.00">prep_independent</text>
</g>
<!-- 7&#45;&gt;11 -->
<g id="edge20" class="edge">
<title>7&#45;&gt;11</title>
<path fill="none" stroke="grey" stroke-width="2" d="M378.19,-359.7C380.75,-351.9 383.83,-342.51 386.68,-333.83"/>
<polygon fill="grey" stroke="grey" stroke-width="2" points="390.08,-334.7 389.88,-324.1 383.43,-332.51 390.08,-334.7"/>
</g>
<!-- 17 -->
<g id="node18" class="node">
<title>17</title>
<path fill="none" stroke="#567bd8" stroke-width="2" d="M698.5,-324C698.5,-324 618.5,-324 618.5,-324 612.5,-324 606.5,-318 606.5,-312 606.5,-312 606.5,-300 606.5,-300 606.5,-294 612.5,-288 618.5,-288 618.5,-288 698.5,-288 698.5,-288 704.5,-288 710.5,-294 710.5,-300 710.5,-300 710.5,-312 710.5,-312 710.5,-318 704.5,-324 698.5,-324"/>
<text text-anchor="middle" x="658.5" y="-303.5" font-family="sans" font-size="10.00">prep_independent</text>
</g>
<!-- 7&#45;&gt;17 -->
<g id="edge26" class="edge">
<title>7&#45;&gt;17</title>
<path fill="none" stroke="grey" stroke-width="2" d="M430.08,-362.11C432.93,-361.39 435.74,-360.69 438.5,-360 491.73,-346.73 552.34,-332.17 596.44,-321.68"/>
<polygon fill="grey" stroke="grey" stroke-width="2" points="597.52,-325.02 606.44,-319.3 595.9,-318.21 597.52,-325.02"/>
</g>
<!-- 8 -->
<g id="node9" class="node">
<title>8</title>
<path fill="none" stroke="#8fd856" stroke-width="2" d="M527.5,-108C527.5,-108 471.5,-108 471.5,-108 465.5,-108 459.5,-102 459.5,-96 459.5,-96 459.5,-84 459.5,-84 459.5,-78 465.5,-72 471.5,-72 471.5,-72 527.5,-72 527.5,-72 533.5,-72 539.5,-78 539.5,-84 539.5,-84 539.5,-96 539.5,-96 539.5,-102 533.5,-108 527.5,-108"/>
<text text-anchor="middle" x="499.5" y="-87.5" font-family="sans" font-size="10.00">bladeloading</text>
</g>
<!-- 8&#45;&gt;0 -->
<g id="edge2" class="edge">
<title>8&#45;&gt;0</title>
<path fill="none" stroke="grey" stroke-width="2" d="M477.75,-71.7C466.66,-62.88 453.03,-52.03 441.01,-42.47"/>
<polygon fill="grey" stroke="grey" stroke-width="2" points="443.01,-39.59 433,-36.1 438.65,-45.07 443.01,-39.59"/>
</g>
<!-- 9 -->
<g id="node10" class="node">
<title>9</title>
<path fill="none" stroke="#56d86b" stroke-width="2" d="M436.5,-180C436.5,-180 392.5,-180 392.5,-180 386.5,-180 380.5,-174 380.5,-168 380.5,-168 380.5,-156 380.5,-156 380.5,-150 386.5,-144 392.5,-144 392.5,-144 436.5,-144 436.5,-144 442.5,-144 448.5,-150 448.5,-156 448.5,-156 448.5,-168 448.5,-168 448.5,-174 442.5,-180 436.5,-180"/>
<text text-anchor="middle" x="414.5" y="-159.5" font-family="sans" font-size="10.00">create_vtk</text>
</g>
<!-- 9&#45;&gt;8 -->
<g id="edge16" class="edge">
<title>9&#45;&gt;8</title>
<path fill="none" stroke="grey" stroke-width="2" d="M435.51,-143.7C446.22,-134.88 459.39,-124.03 471,-114.47"/>
<polygon fill="grey" stroke="grey" stroke-width="2" points="473.24,-117.16 478.73,-108.1 468.79,-111.76 473.24,-117.16"/>
</g>
<!-- 21 -->
<g id="node22" class="node">
<title>21</title>
<path fill="none" stroke="#56a9d8" stroke-width="2" d="M429,-108C429,-108 394,-108 394,-108 388,-108 382,-102 382,-96 382,-96 382,-84 382,-84 382,-78 388,-72 394,-72 394,-72 429,-72 429,-72 435,-72 441,-78 441,-84 441,-84 441,-96 441,-96 441,-102 435,-108 429,-108"/>
<text text-anchor="middle" x="411.5" y="-87.5" font-family="sans" font-size="10.00">contours</text>
</g>
<!-- 9&#45;&gt;21 -->
<g id="edge29" class="edge">
<title>9&#45;&gt;21</title>
<path fill="none" stroke="grey" stroke-width="2" d="M413.76,-143.7C413.43,-135.98 413.03,-126.71 412.66,-118.11"/>
<polygon fill="grey" stroke="grey" stroke-width="2" points="416.16,-117.95 412.23,-108.1 409.16,-118.25 416.16,-117.95"/>
</g>
<!-- 10 -->
<g id="node11" class="node">
<title>10</title>
<path fill="none" stroke="#68d856" stroke-width="2" d="M411,-252C411,-252 380,-252 380,-252 374,-252 368,-246 368,-240 368,-240 368,-228 368,-228 368,-222 374,-216 380,-216 380,-216 411,-216 411,-216 417,-216 423,-222 423,-228 423,-228 423,-240 423,-240 423,-246 417,-252 411,-252"/>
<text text-anchor="middle" x="395.5" y="-231.5" font-family="sans" font-size="10.00">execute</text>
</g>
<!-- 10&#45;&gt;9 -->
<g id="edge17" class="edge">
<title>10&#45;&gt;9</title>
<path fill="none" stroke="grey" stroke-width="2" d="M400.2,-215.7C402.31,-207.9 404.86,-198.51 407.22,-189.83"/>
<polygon fill="grey" stroke="grey" stroke-width="2" points="410.62,-190.67 409.86,-180.1 403.86,-188.84 410.62,-190.67"/>
</g>
<!-- 26 -->
<g id="node27" class="node">
<title>26</title>
<path fill="none" stroke="#56d892" stroke-width="2" d="M350,-180C350,-180 293,-180 293,-180 287,-180 281,-174 281,-168 281,-168 281,-156 281,-156 281,-150 287,-144 293,-144 293,-144 350,-144 350,-144 356,-144 362,-150 362,-156 362,-156 362,-168 362,-168 362,-174 356,-180 350,-180"/>
<text text-anchor="middle" x="321.5" y="-159.5" font-family="sans" font-size="10.00">log_residuals</text>
</g>
<!-- 10&#45;&gt;26 -->
<g id="edge34" class="edge">
<title>10&#45;&gt;26</title>
<path fill="none" stroke="grey" stroke-width="2" d="M377.21,-215.7C368.07,-207.05 356.86,-196.45 346.9,-187.03"/>
<polygon fill="grey" stroke="grey" stroke-width="2" points="349.25,-184.43 339.58,-180.1 344.44,-189.52 349.25,-184.43"/>
</g>
<!-- 11&#45;&gt;10 -->
<g id="edge18" class="edge">
<title>11&#45;&gt;10</title>
<path fill="none" stroke="grey" stroke-width="2" d="M395.5,-287.7C395.5,-279.98 395.5,-270.71 395.5,-262.11"/>
<polygon fill="grey" stroke="grey" stroke-width="2" points="399,-262.1 395.5,-252.1 392,-262.1 399,-262.1"/>
</g>
<!-- 12 -->
<g id="node13" class="node">
<title>12</title>
<path fill="none" stroke="#d8cb56" stroke-width="2" d="M511,-396C511,-396 460,-396 460,-396 454,-396 448,-390 448,-384 448,-384 448,-372 448,-372 448,-366 454,-360 460,-360 460,-360 511,-360 511,-360 517,-360 523,-366 523,-372 523,-372 523,-384 523,-384 523,-390 517,-396 511,-396"/>
<text text-anchor="middle" x="485.5" y="-375.5" font-family="sans" font-size="10.00">create_case</text>
</g>
<!-- 12&#45;&gt;11 -->
<g id="edge19" class="edge">
<title>12&#45;&gt;11</title>
<path fill="none" stroke="grey" stroke-width="2" d="M463.25,-359.7C451.92,-350.88 437.97,-340.03 425.68,-330.47"/>
<polygon fill="grey" stroke="grey" stroke-width="2" points="427.53,-327.48 417.49,-324.1 423.24,-333.01 427.53,-327.48"/>
</g>
<!-- 13 -->
<g id="node14" class="node">
<title>13</title>
<path fill="none" stroke="#b6d856" stroke-width="2" d="M540.5,-506C540.5,-506 430.5,-506 430.5,-506 424.5,-506 418.5,-500 418.5,-494 418.5,-494 418.5,-444 418.5,-444 418.5,-438 424.5,-432 430.5,-432 430.5,-432 540.5,-432 540.5,-432 546.5,-432 552.5,-438 552.5,-444 552.5,-444 552.5,-494 552.5,-494 552.5,-500 546.5,-506 540.5,-506"/>
<text text-anchor="middle" x="485.5" y="-494" font-family="sans" font-size="10.00">write_caseconfig</text>
<text text-anchor="middle" x="485.5" y="-483" font-family="sans" font-size="10.00">dependency: 0</text>
<text text-anchor="middle" x="485.5" y="-472" font-family="sans" font-size="10.00">id: A2</text>
<text text-anchor="middle" x="485.5" y="-461" font-family="sans" font-size="10.00">pressure_outlet: 110000</text>
<text text-anchor="middle" x="485.5" y="-450" font-family="sans" font-size="10.00">velocity_inlet_u: 30</text>
<text text-anchor="middle" x="485.5" y="-439" font-family="sans" font-size="10.00">velocity_inlet_v: 40</text>
</g>
<!-- 13&#45;&gt;12 -->
<g id="edge21" class="edge">
<title>13&#45;&gt;12</title>
<path fill="none" stroke="grey" stroke-width="2" d="M485.5,-431.8C485.5,-423.33 485.5,-414.44 485.5,-406.43"/>
<polygon fill="grey" stroke="grey" stroke-width="2" points="489,-406.16 485.5,-396.16 482,-406.16 489,-406.16"/>
</g>
<!-- 14 -->
<g id="node15" class="node">
<title>14</title>
<path fill="none" stroke="#8fd856" stroke-width="2" d="M703.5,-108C703.5,-108 647.5,-108 647.5,-108 641.5,-108 635.5,-102 635.5,-96 635.5,-96 635.5,-84 635.5,-84 635.5,-78 641.5,-72 647.5,-72 647.5,-72 703.5,-72 703.5,-72 709.5,-72 715.5,-78 715.5,-84 715.5,-84 715.5,-96 715.5,-96 715.5,-102 709.5,-108 703.5,-108"/>
<text text-anchor="middle" x="675.5" y="-87.5" font-family="sans" font-size="10.00">bladeloading</text>
</g>
<!-- 14&#45;&gt;0 -->
<g id="edge3" class="edge">
<title>14&#45;&gt;0</title>
<path fill="none" stroke="grey" stroke-width="2" d="M635.49,-74.78C632.46,-73.81 629.44,-72.87 626.5,-72 564.69,-53.7 491.61,-36.64 448.55,-27.04"/>
<polygon fill="grey" stroke="grey" stroke-width="2" points="449.05,-23.57 438.53,-24.82 447.54,-30.4 449.05,-23.57"/>
</g>
<!-- 15 -->
<g id="node16" class="node">
<title>15</title>
<path fill="none" stroke="#56d86b" stroke-width="2" d="M686.5,-180C686.5,-180 642.5,-180 642.5,-180 636.5,-180 630.5,-174 630.5,-168 630.5,-168 630.5,-156 630.5,-156 630.5,-150 636.5,-144 642.5,-144 642.5,-144 686.5,-144 686.5,-144 692.5,-144 698.5,-150 698.5,-156 698.5,-156 698.5,-168 698.5,-168 698.5,-174 692.5,-180 686.5,-180"/>
<text text-anchor="middle" x="664.5" y="-159.5" font-family="sans" font-size="10.00">create_vtk</text>
</g>
<!-- 15&#45;&gt;14 -->
<g id="edge22" class="edge">
<title>15&#45;&gt;14</title>
<path fill="none" stroke="grey" stroke-width="2" d="M667.22,-143.7C668.43,-135.98 669.89,-126.71 671.24,-118.11"/>
<polygon fill="grey" stroke="grey" stroke-width="2" points="674.72,-118.53 672.81,-108.1 667.8,-117.44 674.72,-118.53"/>
</g>
<!-- 22 -->
<g id="node23" class="node">
<title>22</title>
<path fill="none" stroke="#56a9d8" stroke-width="2" d="M605,-108C605,-108 570,-108 570,-108 564,-108 558,-102 558,-96 558,-96 558,-84 558,-84 558,-78 564,-72 570,-72 570,-72 605,-72 605,-72 611,-72 617,-78 617,-84 617,-84 617,-96 617,-96 617,-102 611,-108 605,-108"/>
<text text-anchor="middle" x="587.5" y="-87.5" font-family="sans" font-size="10.00">contours</text>
</g>
<!-- 15&#45;&gt;22 -->
<g id="edge30" class="edge">
<title>15&#45;&gt;22</title>
<path fill="none" stroke="grey" stroke-width="2" d="M645.47,-143.7C635.96,-135.05 624.29,-124.45 613.93,-115.03"/>
<polygon fill="grey" stroke="grey" stroke-width="2" points="616.07,-112.24 606.31,-108.1 611.36,-117.42 616.07,-112.24"/>
</g>
<!-- 16 -->
<g id="node17" class="node">
<title>16</title>
<path fill="none" stroke="#68d856" stroke-width="2" d="M680,-252C680,-252 649,-252 649,-252 643,-252 637,-246 637,-240 637,-240 637,-228 637,-228 637,-222 643,-216 649,-216 649,-216 680,-216 680,-216 686,-216 692,-222 692,-228 692,-228 692,-240 692,-240 692,-246 686,-252 680,-252"/>
<text text-anchor="middle" x="664.5" y="-231.5" font-family="sans" font-size="10.00">execute</text>
</g>
<!-- 16&#45;&gt;15 -->
<g id="edge23" class="edge">
<title>16&#45;&gt;15</title>
<path fill="none" stroke="grey" stroke-width="2" d="M664.5,-215.7C664.5,-207.98 664.5,-198.71 664.5,-190.11"/>
<polygon fill="grey" stroke="grey" stroke-width="2" points="668,-190.1 664.5,-180.1 661,-190.1 668,-190.1"/>
</g>
<!-- 28 -->
<g id="node29" class="node">
<title>28</title>
<path fill="none" stroke="#56d892" stroke-width="2" d="M798,-180C798,-180 741,-180 741,-180 735,-180 729,-174 729,-168 729,-168 729,-156 729,-156 729,-150 735,-144 741,-144 741,-144 798,-144 798,-144 804,-144 810,-150 810,-156 810,-156 810,-168 810,-168 810,-174 804,-180 798,-180"/>
<text text-anchor="middle" x="769.5" y="-159.5" font-family="sans" font-size="10.00">log_residuals</text>
</g>
<!-- 16&#45;&gt;28 -->
<g id="edge36" class="edge">
<title>16&#45;&gt;28</title>
<path fill="none" stroke="grey" stroke-width="2" d="M690.19,-215.88C703.79,-206.81 720.67,-195.55 735.36,-185.76"/>
<polygon fill="grey" stroke="grey" stroke-width="2" points="737.34,-188.65 743.72,-180.19 733.45,-182.82 737.34,-188.65"/>
</g>
<!-- 17&#45;&gt;16 -->
<g id="edge24" class="edge">
<title>17&#45;&gt;16</title>
<path fill="none" stroke="grey" stroke-width="2" d="M659.98,-287.7C660.64,-279.98 661.44,-270.71 662.18,-262.11"/>
<polygon fill="grey" stroke="grey" stroke-width="2" points="665.67,-262.37 663.03,-252.1 658.69,-261.77 665.67,-262.37"/>
</g>
<!-- 18 -->
<g id="node19" class="node">
<title>18</title>
<path fill="none" stroke="#d8cb56" stroke-width="2" d="M684,-396C684,-396 633,-396 633,-396 627,-396 621,-390 621,-384 621,-384 621,-372 621,-372 621,-366 627,-360 633,-360 633,-360 684,-360 684,-360 690,-360 696,-366 696,-372 696,-372 696,-384 696,-384 696,-390 690,-396 684,-396"/>
<text text-anchor="middle" x="658.5" y="-375.5" font-family="sans" font-size="10.00">create_case</text>
</g>
<!-- 18&#45;&gt;17 -->
<g id="edge25" class="edge">
<title>18&#45;&gt;17</title>
<path fill="none" stroke="grey" stroke-width="2" d="M658.5,-359.7C658.5,-351.98 658.5,-342.71 658.5,-334.11"/>
<polygon fill="grey" stroke="grey" stroke-width="2" points="662,-334.1 658.5,-324.1 655,-334.1 662,-334.1"/>
</g>
<!-- 19 -->
<g id="node20" class="node">
<title>19</title>
<path fill="none" stroke="#b6d856" stroke-width="2" d="M713.5,-506C713.5,-506 603.5,-506 603.5,-506 597.5,-506 591.5,-500 591.5,-494 591.5,-494 591.5,-444 591.5,-444 591.5,-438 597.5,-432 603.5,-432 603.5,-432 713.5,-432 713.5,-432 719.5,-432 725.5,-438 725.5,-444 725.5,-444 725.5,-494 725.5,-494 725.5,-500 719.5,-506 713.5,-506"/>
<text text-anchor="middle" x="658.5" y="-494" font-family="sans" font-size="10.00">write_caseconfig</text>
<text text-anchor="middle" x="658.5" y="-483" font-family="sans" font-size="10.00">dependency: 0</text>
<text text-anchor="middle" x="658.5" y="-472" font-family="sans" font-size="10.00">id: A3</text>
<text text-anchor="middle" x="658.5" y="-461" font-family="sans" font-size="10.00">pressure_outlet: 120000</text>
<text text-anchor="middle" x="658.5" y="-450" font-family="sans" font-size="10.00">velocity_inlet_u: 30</text>
<text text-anchor="middle" x="658.5" y="-439" font-family="sans" font-size="10.00">velocity_inlet_v: 40</text>
</g>
<!-- 19&#45;&gt;18 -->
<g id="edge27" class="edge">
<title>19&#45;&gt;18</title>
<path fill="none" stroke="grey" stroke-width="2" d="M658.5,-431.8C658.5,-423.33 658.5,-414.44 658.5,-406.43"/>
<polygon fill="grey" stroke="grey" stroke-width="2" points="662,-406.16 658.5,-396.16 655,-406.16 662,-406.16"/>
</g>
<!-- 20&#45;&gt;0 -->
<g id="edge4" class="edge">
<title>20&#45;&gt;0</title>
<path fill="none" stroke="grey" stroke-width="2" d="M59.02,-75.2C62.18,-74 65.38,-72.9 68.5,-72 176.82,-40.6 310.1,-26.78 373.94,-21.62"/>
<polygon fill="grey" stroke="grey" stroke-width="2" points="374.61,-25.08 384.3,-20.81 374.06,-18.1 374.61,-25.08"/>
</g>
<!-- 21&#45;&gt;0 -->
<g id="edge5" class="edge">
<title>21&#45;&gt;0</title>
<path fill="none" stroke="grey" stroke-width="2" d="M411.5,-71.7C411.5,-63.98 411.5,-54.71 411.5,-46.11"/>
<polygon fill="grey" stroke="grey" stroke-width="2" points="415,-46.1 411.5,-36.1 408,-46.1 415,-46.1"/>
</g>
<!-- 22&#45;&gt;0 -->
<g id="edge6" class="edge">
<title>22&#45;&gt;0</title>
<path fill="none" stroke="grey" stroke-width="2" d="M557.74,-75.88C554.63,-74.55 551.51,-73.24 548.5,-72 514.78,-58.14 476.01,-43.23 448.33,-32.77"/>
<polygon fill="grey" stroke="grey" stroke-width="2" points="449.26,-29.38 438.67,-29.13 446.79,-35.93 449.26,-29.38"/>
</g>
<!-- 23 -->
<g id="node24" class="node">
<title>23</title>
<path fill="none" stroke="#56d8b9" stroke-width="2" d="M249,-108C249,-108 188,-108 188,-108 182,-108 176,-102 176,-96 176,-96 176,-84 176,-84 176,-78 182,-72 188,-72 188,-72 249,-72 249,-72 255,-72 261,-78 261,-84 261,-84 261,-96 261,-96 261,-102 255,-108 249,-108"/>
<text text-anchor="middle" x="218.5" y="-87.5" font-family="sans" font-size="10.00">plot_residuals</text>
</g>
<!-- 23&#45;&gt;0 -->
<g id="edge7" class="edge">
<title>23&#45;&gt;0</title>
<path fill="none" stroke="grey" stroke-width="2" d="M261.33,-73.46C295.35,-61.13 342.41,-44.06 374.74,-32.33"/>
<polygon fill="grey" stroke="grey" stroke-width="2" points="376.06,-35.58 384.26,-28.88 373.67,-29 376.06,-35.58"/>
</g>
<!-- 24&#45;&gt;23 -->
<g id="edge31" class="edge">
<title>24&#45;&gt;23</title>
<path fill="none" stroke="grey" stroke-width="2" d="M218.5,-143.7C218.5,-135.98 218.5,-126.71 218.5,-118.11"/>
<polygon fill="grey" stroke="grey" stroke-width="2" points="222,-118.1 218.5,-108.1 215,-118.1 222,-118.1"/>
</g>
<!-- 25 -->
<g id="node26" class="node">
<title>25</title>
<path fill="none" stroke="#56d8b9" stroke-width="2" d="M352,-108C352,-108 291,-108 291,-108 285,-108 279,-102 279,-96 279,-96 279,-84 279,-84 279,-78 285,-72 291,-72 291,-72 352,-72 352,-72 358,-72 364,-78 364,-84 364,-84 364,-96 364,-96 364,-102 358,-108 352,-108"/>
<text text-anchor="middle" x="321.5" y="-87.5" font-family="sans" font-size="10.00">plot_residuals</text>
</g>
<!-- 25&#45;&gt;0 -->
<g id="edge8" class="edge">
<title>25&#45;&gt;0</title>
<path fill="none" stroke="grey" stroke-width="2" d="M343.75,-71.7C355.08,-62.88 369.03,-52.03 381.32,-42.47"/>
<polygon fill="grey" stroke="grey" stroke-width="2" points="383.76,-45.01 389.51,-36.1 379.47,-39.48 383.76,-45.01"/>
</g>
<!-- 26&#45;&gt;25 -->
<g id="edge33" class="edge">
<title>26&#45;&gt;25</title>
<path fill="none" stroke="grey" stroke-width="2" d="M321.5,-143.7C321.5,-135.98 321.5,-126.71 321.5,-118.11"/>
<polygon fill="grey" stroke="grey" stroke-width="2" points="325,-118.1 321.5,-108.1 318,-118.1 325,-118.1"/>
</g>
<!-- 27 -->
<g id="node28" class="node">
<title>27</title>
<path fill="none" stroke="#56d8b9" stroke-width="2" d="M807,-108C807,-108 746,-108 746,-108 740,-108 734,-102 734,-96 734,-96 734,-84 734,-84 734,-78 740,-72 746,-72 746,-72 807,-72 807,-72 813,-72 819,-78 819,-84 819,-84 819,-96 819,-96 819,-102 813,-108 807,-108"/>
<text text-anchor="middle" x="776.5" y="-87.5" font-family="sans" font-size="10.00">plot_residuals</text>
</g>
<!-- 27&#45;&gt;0 -->
<g id="edge9" class="edge">
<title>27&#45;&gt;0</title>
<path fill="none" stroke="grey" stroke-width="2" d="M733.8,-74.48C730.67,-73.59 727.54,-72.75 724.5,-72 626.07,-47.72 507.48,-30.97 448.53,-23.46"/>
<polygon fill="grey" stroke="grey" stroke-width="2" points="448.93,-19.98 438.57,-22.21 448.06,-26.93 448.93,-19.98"/>
</g>
<!-- 28&#45;&gt;27 -->
<g id="edge35" class="edge">
<title>28&#45;&gt;27</title>
<path fill="none" stroke="grey" stroke-width="2" d="M771.23,-143.7C772,-135.98 772.93,-126.71 773.79,-118.11"/>
<polygon fill="grey" stroke="grey" stroke-width="2" points="777.28,-118.4 774.79,-108.1 770.31,-117.71 777.28,-118.4"/>
</g>
</g>
</svg>
