<?xml version="1.0" encoding="UTF-8" standalone="no"?>
<!DOCTYPE svg PUBLIC "-//W3C//DTD SVG 1.1//EN"
 "http://www.w3.org/Graphics/SVG/1.1/DTD/svg11.dtd">
<!-- Generated by graphviz version 2.43.0 (0)
 -->
<!-- Title: snakemake_dag Pages: 1 -->
<svg width="697pt" height="878pt"
 viewBox="0.00 0.00 696.50 878.00" xmlns="http://www.w3.org/2000/svg" xmlns:xlink="http://www.w3.org/1999/xlink">
<g id="graph0" class="graph" transform="scale(1 1) rotate(0) translate(4 874)">
<title>snakemake_dag</title>
<polygon fill="white" stroke="transparent" points="-4,4 -4,-874 692.5,-874 692.5,4 -4,4"/>
<!-- 0 -->
<g id="node1" class="node">
<title>0</title>
<path fill="none" stroke="#8fd856" stroke-width="2" d="M411.5,-36C411.5,-36 381.5,-36 381.5,-36 375.5,-36 369.5,-30 369.5,-24 369.5,-24 369.5,-12 369.5,-12 369.5,-6 375.5,0 381.5,0 381.5,0 411.5,0 411.5,0 417.5,0 423.5,-6 423.5,-12 423.5,-12 423.5,-24 423.5,-24 423.5,-30 417.5,-36 411.5,-36"/>
<text text-anchor="middle" x="396.5" y="-15.5" font-family="sans" font-size="10.00">all</text>
</g>
<!-- 1 -->
<g id="node2" class="node">
<title>1</title>
<path fill="none" stroke="#d87d56" stroke-width="2" d="M676.5,-108C676.5,-108 620.5,-108 620.5,-108 614.5,-108 608.5,-102 608.5,-96 608.5,-96 608.5,-84 608.5,-84 608.5,-78 614.5,-72 620.5,-72 620.5,-72 676.5,-72 676.5,-72 682.5,-72 688.5,-78 688.5,-84 688.5,-84 688.5,-96 688.5,-96 688.5,-102 682.5,-108 676.5,-108"/>
<text text-anchor="middle" x="648.5" y="-87.5" font-family="sans" font-size="10.00">bladeloading</text>
</g>
<!-- 1&#45;&gt;0 -->
<g id="edge1" class="edge">
<title>1&#45;&gt;0</title>
<path fill="none" stroke="grey" stroke-width="2" d="M608.47,-74.83C605.45,-73.84 602.43,-72.89 599.5,-72 541.98,-54.54 474.27,-37.57 433.4,-27.71"/>
<polygon fill="grey" stroke="grey" stroke-width="2" points="434.16,-24.29 423.61,-25.36 432.52,-31.1 434.16,-24.29"/>
</g>
<!-- 2 -->
<g id="node3" class="node">
<title>2</title>
<path fill="none" stroke="#56a9d8" stroke-width="2" d="M595.5,-180C595.5,-180 551.5,-180 551.5,-180 545.5,-180 539.5,-174 539.5,-168 539.5,-168 539.5,-156 539.5,-156 539.5,-150 545.5,-144 551.5,-144 551.5,-144 595.5,-144 595.5,-144 601.5,-144 607.5,-150 607.5,-156 607.5,-156 607.5,-168 607.5,-168 607.5,-174 601.5,-180 595.5,-180"/>
<text text-anchor="middle" x="573.5" y="-159.5" font-family="sans" font-size="10.00">create_vtk</text>
</g>
<!-- 2&#45;&gt;1 -->
<g id="edge10" class="edge">
<title>2&#45;&gt;1</title>
<path fill="none" stroke="grey" stroke-width="2" d="M592.04,-143.7C601.3,-135.05 612.66,-124.45 622.76,-115.03"/>
<polygon fill="grey" stroke="grey" stroke-width="2" points="625.25,-117.49 630.17,-108.1 620.48,-112.37 625.25,-117.49"/>
</g>
<!-- 21 -->
<g id="node22" class="node">
<title>21</title>
<path fill="none" stroke="#d85656" stroke-width="2" d="M578,-108C578,-108 543,-108 543,-108 537,-108 531,-102 531,-96 531,-96 531,-84 531,-84 531,-78 537,-72 543,-72 543,-72 578,-72 578,-72 584,-72 590,-78 590,-84 590,-84 590,-96 590,-96 590,-102 584,-108 578,-108"/>
<text text-anchor="middle" x="560.5" y="-87.5" font-family="sans" font-size="10.00">contours</text>
</g>
<!-- 2&#45;&gt;21 -->
<g id="edge30" class="edge">
<title>2&#45;&gt;21</title>
<path fill="none" stroke="grey" stroke-width="2" d="M570.29,-143.7C568.85,-135.98 567.13,-126.71 565.54,-118.11"/>
<polygon fill="grey" stroke="grey" stroke-width="2" points="568.94,-117.3 563.68,-108.1 562.06,-118.58 568.94,-117.3"/>
</g>
<!-- 3 -->
<g id="node4" class="node">
<title>3</title>
<path fill="none" stroke="#d8a456" stroke-width="2" d="M518,-578C518,-578 487,-578 487,-578 481,-578 475,-572 475,-566 475,-566 475,-554 475,-554 475,-548 481,-542 487,-542 487,-542 518,-542 518,-542 524,-542 530,-548 530,-554 530,-554 530,-566 530,-566 530,-572 524,-578 518,-578"/>
<text text-anchor="middle" x="502.5" y="-557.5" font-family="sans" font-size="10.00">execute</text>
</g>
<!-- 3&#45;&gt;2 -->
<g id="edge11" class="edge">
<title>3&#45;&gt;2</title>
<path fill="none" stroke="grey" stroke-width="2" d="M523.88,-541.77C534.16,-532.31 545.7,-519.71 552.5,-506 577.9,-454.74 573.5,-436.21 573.5,-379 573.5,-379 573.5,-379 573.5,-305 573.5,-265 573.5,-218.65 573.5,-190.08"/>
<polygon fill="grey" stroke="grey" stroke-width="2" points="577,-190.05 573.5,-180.05 570,-190.05 577,-190.05"/>
</g>
<!-- 13 -->
<g id="node14" class="node">
<title>13</title>
<path fill="none" stroke="#68d856" stroke-width="2" d="M393,-487C393,-487 322,-487 322,-487 316,-487 310,-481 310,-475 310,-475 310,-463 310,-463 310,-457 316,-451 322,-451 322,-451 393,-451 393,-451 399,-451 405,-457 405,-463 405,-463 405,-475 405,-475 405,-481 399,-487 393,-487"/>
<text text-anchor="middle" x="357.5" y="-466.5" font-family="sans" font-size="10.00">prep_dependent</text>
</g>
<!-- 3&#45;&gt;13 -->
<g id="edge22" class="edge">
<title>3&#45;&gt;13</title>
<path fill="none" stroke="grey" stroke-width="2" d="M474.89,-542.05C451.95,-527.97 419.14,-507.84 394.04,-492.43"/>
<polygon fill="grey" stroke="grey" stroke-width="2" points="395.86,-489.44 385.51,-487.19 392.2,-495.4 395.86,-489.44"/>
</g>
<!-- 25 -->
<g id="node26" class="node">
<title>25</title>
<path fill="none" stroke="#b6d856" stroke-width="2" d="M531,-487C531,-487 474,-487 474,-487 468,-487 462,-481 462,-475 462,-475 462,-463 462,-463 462,-457 468,-451 474,-451 474,-451 531,-451 531,-451 537,-451 543,-457 543,-463 543,-463 543,-475 543,-475 543,-481 537,-487 531,-487"/>
<text text-anchor="middle" x="502.5" y="-466.5" font-family="sans" font-size="10.00">log_residuals</text>
</g>
<!-- 3&#45;&gt;25 -->
<g id="edge34" class="edge">
<title>3&#45;&gt;25</title>
<path fill="none" stroke="grey" stroke-width="2" d="M502.5,-541.84C502.5,-529.28 502.5,-511.98 502.5,-497.5"/>
<polygon fill="grey" stroke="grey" stroke-width="2" points="506,-497.11 502.5,-487.11 499,-497.11 506,-497.11"/>
</g>
<!-- 4 -->
<g id="node5" class="node">
<title>4</title>
<path fill="none" stroke="#56d86b" stroke-width="2" d="M542.5,-669C542.5,-669 462.5,-669 462.5,-669 456.5,-669 450.5,-663 450.5,-657 450.5,-657 450.5,-645 450.5,-645 450.5,-639 456.5,-633 462.5,-633 462.5,-633 542.5,-633 542.5,-633 548.5,-633 554.5,-639 554.5,-645 554.5,-645 554.5,-657 554.5,-657 554.5,-663 548.5,-669 542.5,-669"/>
<text text-anchor="middle" x="502.5" y="-648.5" font-family="sans" font-size="10.00">prep_independent</text>
</g>
<!-- 4&#45;&gt;3 -->
<g id="edge12" class="edge">
<title>4&#45;&gt;3</title>
<path fill="none" stroke="grey" stroke-width="2" d="M502.5,-632.84C502.5,-620.28 502.5,-602.98 502.5,-588.5"/>
<polygon fill="grey" stroke="grey" stroke-width="2" points="506,-588.11 502.5,-578.11 499,-588.11 506,-588.11"/>
</g>
<!-- 5 -->
<g id="node6" class="node">
<title>5</title>
<path fill="none" stroke="#567bd8" stroke-width="2" d="M471,-760C471,-760 420,-760 420,-760 414,-760 408,-754 408,-748 408,-748 408,-736 408,-736 408,-730 414,-724 420,-724 420,-724 471,-724 471,-724 477,-724 483,-730 483,-736 483,-736 483,-748 483,-748 483,-754 477,-760 471,-760"/>
<text text-anchor="middle" x="445.5" y="-739.5" font-family="sans" font-size="10.00">create_case</text>
</g>
<!-- 5&#45;&gt;4 -->
<g id="edge13" class="edge">
<title>5&#45;&gt;4</title>
<path fill="none" stroke="grey" stroke-width="2" d="M456.49,-723.84C464.85,-710.79 476.49,-692.62 485.97,-677.81"/>
<polygon fill="grey" stroke="grey" stroke-width="2" points="489.1,-679.42 491.54,-669.11 483.2,-675.64 489.1,-679.42"/>
</g>
<!-- 6 -->
<g id="node7" class="node">
<title>6</title>
<path fill="none" stroke="#56d8b9" stroke-width="2" d="M500.5,-870C500.5,-870 390.5,-870 390.5,-870 384.5,-870 378.5,-864 378.5,-858 378.5,-858 378.5,-808 378.5,-808 378.5,-802 384.5,-796 390.5,-796 390.5,-796 500.5,-796 500.5,-796 506.5,-796 512.5,-802 512.5,-808 512.5,-808 512.5,-858 512.5,-858 512.5,-864 506.5,-870 500.5,-870"/>
<text text-anchor="middle" x="445.5" y="-858" font-family="sans" font-size="10.00">write_caseconfig</text>
<text text-anchor="middle" x="445.5" y="-847" font-family="sans" font-size="10.00">dependency: 0</text>
<text text-anchor="middle" x="445.5" y="-836" font-family="sans" font-size="10.00">id: A1</text>
<text text-anchor="middle" x="445.5" y="-825" font-family="sans" font-size="10.00">pressure_outlet: 100000</text>
<text text-anchor="middle" x="445.5" y="-814" font-family="sans" font-size="10.00">velocity_inlet_u: 30</text>
<text text-anchor="middle" x="445.5" y="-803" font-family="sans" font-size="10.00">velocity_inlet_v: 40</text>
</g>
<!-- 6&#45;&gt;5 -->
<g id="edge15" class="edge">
<title>6&#45;&gt;5</title>
<path fill="none" stroke="grey" stroke-width="2" d="M445.5,-795.8C445.5,-787.33 445.5,-778.44 445.5,-770.43"/>
<polygon fill="grey" stroke="grey" stroke-width="2" points="449,-770.16 445.5,-760.16 442,-770.16 449,-770.16"/>
</g>
<!-- 7 -->
<g id="node8" class="node">
<title>7</title>
<path fill="none" stroke="#56d892" stroke-width="2" d="M604,-760C604,-760 513,-760 513,-760 507,-760 501,-754 501,-748 501,-748 501,-736 501,-736 501,-730 507,-724 513,-724 513,-724 604,-724 604,-724 610,-724 616,-730 616,-736 616,-736 616,-748 616,-748 616,-754 610,-760 604,-760"/>
<text text-anchor="middle" x="558.5" y="-739.5" font-family="sans" font-size="10.00">touch_independents</text>
</g>
<!-- 7&#45;&gt;4 -->
<g id="edge14" class="edge">
<title>7&#45;&gt;4</title>
<path fill="none" stroke="grey" stroke-width="2" d="M547.7,-723.84C539.49,-710.79 528.06,-692.62 518.74,-677.81"/>
<polygon fill="grey" stroke="grey" stroke-width="2" points="521.55,-675.71 513.26,-669.11 515.63,-679.44 521.55,-675.71"/>
</g>
<!-- 8 -->
<g id="node9" class="node">
<title>8</title>
<path fill="none" stroke="#d87d56" stroke-width="2" d="M424.5,-108C424.5,-108 368.5,-108 368.5,-108 362.5,-108 356.5,-102 356.5,-96 356.5,-96 356.5,-84 356.5,-84 356.5,-78 362.5,-72 368.5,-72 368.5,-72 424.5,-72 424.5,-72 430.5,-72 436.5,-78 436.5,-84 436.5,-84 436.5,-96 436.5,-96 436.5,-102 430.5,-108 424.5,-108"/>
<text text-anchor="middle" x="396.5" y="-87.5" font-family="sans" font-size="10.00">bladeloading</text>
</g>
<!-- 8&#45;&gt;0 -->
<g id="edge2" class="edge">
<title>8&#45;&gt;0</title>
<path fill="none" stroke="grey" stroke-width="2" d="M396.5,-71.7C396.5,-63.98 396.5,-54.71 396.5,-46.11"/>
<polygon fill="grey" stroke="grey" stroke-width="2" points="400,-46.1 396.5,-36.1 393,-46.1 400,-46.1"/>
</g>
<!-- 9 -->
<g id="node10" class="node">
<title>9</title>
<path fill="none" stroke="#56a9d8" stroke-width="2" d="M354.5,-180C354.5,-180 310.5,-180 310.5,-180 304.5,-180 298.5,-174 298.5,-168 298.5,-168 298.5,-156 298.5,-156 298.5,-150 304.5,-144 310.5,-144 310.5,-144 354.5,-144 354.5,-144 360.5,-144 366.5,-150 366.5,-156 366.5,-156 366.5,-168 366.5,-168 366.5,-174 360.5,-180 354.5,-180"/>
<text text-anchor="middle" x="332.5" y="-159.5" font-family="sans" font-size="10.00">create_vtk</text>
</g>
<!-- 9&#45;&gt;8 -->
<g id="edge16" class="edge">
<title>9&#45;&gt;8</title>
<path fill="none" stroke="grey" stroke-width="2" d="M348.32,-143.7C356.07,-135.22 365.54,-124.86 374.02,-115.58"/>
<polygon fill="grey" stroke="grey" stroke-width="2" points="376.7,-117.85 380.86,-108.1 371.53,-113.12 376.7,-117.85"/>
</g>
<!-- 22 -->
<g id="node23" class="node">
<title>22</title>
<path fill="none" stroke="#d85656" stroke-width="2" d="M326,-108C326,-108 291,-108 291,-108 285,-108 279,-102 279,-96 279,-96 279,-84 279,-84 279,-78 285,-72 291,-72 291,-72 326,-72 326,-72 332,-72 338,-78 338,-84 338,-84 338,-96 338,-96 338,-102 332,-108 326,-108"/>
<text text-anchor="middle" x="308.5" y="-87.5" font-family="sans" font-size="10.00">contours</text>
</g>
<!-- 9&#45;&gt;22 -->
<g id="edge31" class="edge">
<title>9&#45;&gt;22</title>
<path fill="none" stroke="grey" stroke-width="2" d="M326.57,-143.7C323.89,-135.9 320.67,-126.51 317.7,-117.83"/>
<polygon fill="grey" stroke="grey" stroke-width="2" points="320.92,-116.43 314.36,-108.1 314.3,-118.7 320.92,-116.43"/>
</g>
<!-- 10 -->
<g id="node11" class="node">
<title>10</title>
<path fill="none" stroke="#d8a456" stroke-width="2" d="M357,-396C357,-396 326,-396 326,-396 320,-396 314,-390 314,-384 314,-384 314,-372 314,-372 314,-366 320,-360 326,-360 326,-360 357,-360 357,-360 363,-360 369,-366 369,-372 369,-372 369,-384 369,-384 369,-390 363,-396 357,-396"/>
<text text-anchor="middle" x="341.5" y="-375.5" font-family="sans" font-size="10.00">execute</text>
</g>
<!-- 10&#45;&gt;9 -->
<g id="edge17" class="edge">
<title>10&#45;&gt;9</title>
<path fill="none" stroke="grey" stroke-width="2" d="M340.78,-359.85C339.22,-322.83 335.54,-235.18 333.65,-190.39"/>
<polygon fill="grey" stroke="grey" stroke-width="2" points="337.14,-190.08 333.22,-180.23 330.15,-190.37 337.14,-190.08"/>
</g>
<!-- 20 -->
<g id="node21" class="node">
<title>20</title>
<path fill="none" stroke="#68d856" stroke-width="2" d="M207,-324C207,-324 136,-324 136,-324 130,-324 124,-318 124,-312 124,-312 124,-300 124,-300 124,-294 130,-288 136,-288 136,-288 207,-288 207,-288 213,-288 219,-294 219,-300 219,-300 219,-312 219,-312 219,-318 213,-324 207,-324"/>
<text text-anchor="middle" x="171.5" y="-303.5" font-family="sans" font-size="10.00">prep_dependent</text>
</g>
<!-- 10&#45;&gt;20 -->
<g id="edge29" class="edge">
<title>10&#45;&gt;20</title>
<path fill="none" stroke="grey" stroke-width="2" d="M313.81,-365.6C289.1,-355.42 252.31,-340.27 222.32,-327.93"/>
<polygon fill="grey" stroke="grey" stroke-width="2" points="223.43,-324.6 212.85,-324.03 220.76,-331.07 223.43,-324.6"/>
</g>
<!-- 27 -->
<g id="node28" class="node">
<title>27</title>
<path fill="none" stroke="#b6d856" stroke-width="2" d="M430,-324C430,-324 373,-324 373,-324 367,-324 361,-318 361,-312 361,-312 361,-300 361,-300 361,-294 367,-288 373,-288 373,-288 430,-288 430,-288 436,-288 442,-294 442,-300 442,-300 442,-312 442,-312 442,-318 436,-324 430,-324"/>
<text text-anchor="middle" x="401.5" y="-303.5" font-family="sans" font-size="10.00">log_residuals</text>
</g>
<!-- 10&#45;&gt;27 -->
<g id="edge36" class="edge">
<title>10&#45;&gt;27</title>
<path fill="none" stroke="grey" stroke-width="2" d="M356.33,-359.7C363.52,-351.3 372.3,-341.07 380.19,-331.86"/>
<polygon fill="grey" stroke="grey" stroke-width="2" points="382.99,-333.97 386.84,-324.1 377.67,-329.42 382.99,-333.97"/>
</g>
<!-- 11 -->
<g id="node12" class="node">
<title>11</title>
<path fill="none" stroke="#567bd8" stroke-width="2" d="M383,-578C383,-578 332,-578 332,-578 326,-578 320,-572 320,-566 320,-566 320,-554 320,-554 320,-548 326,-542 332,-542 332,-542 383,-542 383,-542 389,-542 395,-548 395,-554 395,-554 395,-566 395,-566 395,-572 389,-578 383,-578"/>
<text text-anchor="middle" x="357.5" y="-557.5" font-family="sans" font-size="10.00">create_case</text>
</g>
<!-- 11&#45;&gt;13 -->
<g id="edge20" class="edge">
<title>11&#45;&gt;13</title>
<path fill="none" stroke="grey" stroke-width="2" d="M357.5,-541.84C357.5,-529.28 357.5,-511.98 357.5,-497.5"/>
<polygon fill="grey" stroke="grey" stroke-width="2" points="361,-497.11 357.5,-487.11 354,-497.11 361,-497.11"/>
</g>
<!-- 12 -->
<g id="node13" class="node">
<title>12</title>
<path fill="none" stroke="#56d8b9" stroke-width="2" d="M412.5,-688C412.5,-688 302.5,-688 302.5,-688 296.5,-688 290.5,-682 290.5,-676 290.5,-676 290.5,-626 290.5,-626 290.5,-620 296.5,-614 302.5,-614 302.5,-614 412.5,-614 412.5,-614 418.5,-614 424.5,-620 424.5,-626 424.5,-626 424.5,-676 424.5,-676 424.5,-682 418.5,-688 412.5,-688"/>
<text text-anchor="middle" x="357.5" y="-676" font-family="sans" font-size="10.00">write_caseconfig</text>
<text text-anchor="middle" x="357.5" y="-665" font-family="sans" font-size="10.00">dependency: A1</text>
<text text-anchor="middle" x="357.5" y="-654" font-family="sans" font-size="10.00">id: A2</text>
<text text-anchor="middle" x="357.5" y="-643" font-family="sans" font-size="10.00">pressure_outlet: 110000</text>
<text text-anchor="middle" x="357.5" y="-632" font-family="sans" font-size="10.00">velocity_inlet_u: 30</text>
<text text-anchor="middle" x="357.5" y="-621" font-family="sans" font-size="10.00">velocity_inlet_v: 40</text>
</g>
<!-- 12&#45;&gt;11 -->
<g id="edge19" class="edge">
<title>12&#45;&gt;11</title>
<path fill="none" stroke="grey" stroke-width="2" d="M357.5,-613.8C357.5,-605.33 357.5,-596.44 357.5,-588.43"/>
<polygon fill="grey" stroke="grey" stroke-width="2" points="361,-588.16 357.5,-578.16 354,-588.16 361,-588.16"/>
</g>
<!-- 13&#45;&gt;10 -->
<g id="edge18" class="edge">
<title>13&#45;&gt;10</title>
<path fill="none" stroke="grey" stroke-width="2" d="M354.42,-450.84C352.14,-438.16 348.99,-420.64 346.37,-406.08"/>
<polygon fill="grey" stroke="grey" stroke-width="2" points="349.79,-405.33 344.58,-396.11 342.9,-406.57 349.79,-405.33"/>
</g>
<!-- 14 -->
<g id="node15" class="node">
<title>14</title>
<path fill="none" stroke="#d8cb56" stroke-width="2" d="M230.5,-578C230.5,-578 148.5,-578 148.5,-578 142.5,-578 136.5,-572 136.5,-566 136.5,-566 136.5,-554 136.5,-554 136.5,-548 142.5,-542 148.5,-542 148.5,-542 230.5,-542 230.5,-542 236.5,-542 242.5,-548 242.5,-554 242.5,-554 242.5,-566 242.5,-566 242.5,-572 236.5,-578 230.5,-578"/>
<text text-anchor="middle" x="189.5" y="-557.5" font-family="sans" font-size="10.00">touch_dependents</text>
</g>
<!-- 14&#45;&gt;13 -->
<g id="edge21" class="edge">
<title>14&#45;&gt;13</title>
<path fill="none" stroke="grey" stroke-width="2" d="M228.08,-541.94C249.69,-532.05 276.94,-519 300.5,-506 308.01,-501.85 315.9,-497.13 323.32,-492.5"/>
<polygon fill="grey" stroke="grey" stroke-width="2" points="325.2,-495.45 331.78,-487.15 321.46,-489.54 325.2,-495.45"/>
</g>
<!-- 14&#45;&gt;20 -->
<g id="edge28" class="edge">
<title>14&#45;&gt;20</title>
<path fill="none" stroke="grey" stroke-width="2" d="M171.33,-541.68C162.62,-532.1 153.09,-519.43 148.5,-506 128.27,-446.79 147.84,-372.51 161.25,-333.59"/>
<polygon fill="grey" stroke="grey" stroke-width="2" points="164.6,-334.63 164.67,-324.04 158.01,-332.28 164.6,-334.63"/>
</g>
<!-- 15 -->
<g id="node16" class="node">
<title>15</title>
<path fill="none" stroke="#d87d56" stroke-width="2" d="M248.5,-108C248.5,-108 192.5,-108 192.5,-108 186.5,-108 180.5,-102 180.5,-96 180.5,-96 180.5,-84 180.5,-84 180.5,-78 186.5,-72 192.5,-72 192.5,-72 248.5,-72 248.5,-72 254.5,-72 260.5,-78 260.5,-84 260.5,-84 260.5,-96 260.5,-96 260.5,-102 254.5,-108 248.5,-108"/>
<text text-anchor="middle" x="220.5" y="-87.5" font-family="sans" font-size="10.00">bladeloading</text>
</g>
<!-- 15&#45;&gt;0 -->
<g id="edge3" class="edge">
<title>15&#45;&gt;0</title>
<path fill="none" stroke="grey" stroke-width="2" d="M260.88,-72.94C290.78,-61.05 331.19,-44.97 360.11,-33.47"/>
<polygon fill="grey" stroke="grey" stroke-width="2" points="361.44,-36.71 369.44,-29.76 358.85,-30.21 361.44,-36.71"/>
</g>
<!-- 16 -->
<g id="node17" class="node">
<title>16</title>
<path fill="none" stroke="#56a9d8" stroke-width="2" d="M192.5,-180C192.5,-180 148.5,-180 148.5,-180 142.5,-180 136.5,-174 136.5,-168 136.5,-168 136.5,-156 136.5,-156 136.5,-150 142.5,-144 148.5,-144 148.5,-144 192.5,-144 192.5,-144 198.5,-144 204.5,-150 204.5,-156 204.5,-156 204.5,-168 204.5,-168 204.5,-174 198.5,-180 192.5,-180"/>
<text text-anchor="middle" x="170.5" y="-159.5" font-family="sans" font-size="10.00">create_vtk</text>
</g>
<!-- 16&#45;&gt;15 -->
<g id="edge23" class="edge">
<title>16&#45;&gt;15</title>
<path fill="none" stroke="grey" stroke-width="2" d="M182.86,-143.7C188.73,-135.47 195.87,-125.48 202.34,-116.42"/>
<polygon fill="grey" stroke="grey" stroke-width="2" points="205.32,-118.28 208.28,-108.1 199.62,-114.21 205.32,-118.28"/>
</g>
<!-- 23 -->
<g id="node24" class="node">
<title>23</title>
<path fill="none" stroke="#d85656" stroke-width="2" d="M150,-108C150,-108 115,-108 115,-108 109,-108 103,-102 103,-96 103,-96 103,-84 103,-84 103,-78 109,-72 115,-72 115,-72 150,-72 150,-72 156,-72 162,-78 162,-84 162,-84 162,-96 162,-96 162,-102 156,-108 150,-108"/>
<text text-anchor="middle" x="132.5" y="-87.5" font-family="sans" font-size="10.00">contours</text>
</g>
<!-- 16&#45;&gt;23 -->
<g id="edge32" class="edge">
<title>16&#45;&gt;23</title>
<path fill="none" stroke="grey" stroke-width="2" d="M161.11,-143.7C156.74,-135.64 151.44,-125.89 146.6,-116.98"/>
<polygon fill="grey" stroke="grey" stroke-width="2" points="149.63,-115.22 141.79,-108.1 143.48,-118.56 149.63,-115.22"/>
</g>
<!-- 17 -->
<g id="node18" class="node">
<title>17</title>
<path fill="none" stroke="#d8a456" stroke-width="2" d="M186,-252C186,-252 155,-252 155,-252 149,-252 143,-246 143,-240 143,-240 143,-228 143,-228 143,-222 149,-216 155,-216 155,-216 186,-216 186,-216 192,-216 198,-222 198,-228 198,-228 198,-240 198,-240 198,-246 192,-252 186,-252"/>
<text text-anchor="middle" x="170.5" y="-231.5" font-family="sans" font-size="10.00">execute</text>
</g>
<!-- 17&#45;&gt;16 -->
<g id="edge24" class="edge">
<title>17&#45;&gt;16</title>
<path fill="none" stroke="grey" stroke-width="2" d="M170.5,-215.7C170.5,-207.98 170.5,-198.71 170.5,-190.11"/>
<polygon fill="grey" stroke="grey" stroke-width="2" points="174,-190.1 170.5,-180.1 167,-190.1 174,-190.1"/>
</g>
<!-- 29 -->
<g id="node30" class="node">
<title>29</title>
<path fill="none" stroke="#b6d856" stroke-width="2" d="M85,-180C85,-180 28,-180 28,-180 22,-180 16,-174 16,-168 16,-168 16,-156 16,-156 16,-150 22,-144 28,-144 28,-144 85,-144 85,-144 91,-144 97,-150 97,-156 97,-156 97,-168 97,-168 97,-174 91,-180 85,-180"/>
<text text-anchor="middle" x="56.5" y="-159.5" font-family="sans" font-size="10.00">log_residuals</text>
</g>
<!-- 17&#45;&gt;29 -->
<g id="edge38" class="edge">
<title>17&#45;&gt;29</title>
<path fill="none" stroke="grey" stroke-width="2" d="M142.9,-216.05C127.89,-206.84 109.13,-195.32 92.93,-185.37"/>
<polygon fill="grey" stroke="grey" stroke-width="2" points="94.59,-182.28 84.24,-180.03 90.93,-188.25 94.59,-182.28"/>
</g>
<!-- 18 -->
<g id="node19" class="node">
<title>18</title>
<path fill="none" stroke="#567bd8" stroke-width="2" d="M236,-396C236,-396 185,-396 185,-396 179,-396 173,-390 173,-384 173,-384 173,-372 173,-372 173,-366 179,-360 185,-360 185,-360 236,-360 236,-360 242,-360 248,-366 248,-372 248,-372 248,-384 248,-384 248,-390 242,-396 236,-396"/>
<text text-anchor="middle" x="210.5" y="-375.5" font-family="sans" font-size="10.00">create_case</text>
</g>
<!-- 18&#45;&gt;20 -->
<g id="edge27" class="edge">
<title>18&#45;&gt;20</title>
<path fill="none" stroke="grey" stroke-width="2" d="M200.86,-359.7C196.37,-351.64 190.94,-341.89 185.98,-332.98"/>
<polygon fill="grey" stroke="grey" stroke-width="2" points="188.95,-331.14 181.03,-324.1 182.84,-334.54 188.95,-331.14"/>
</g>
<!-- 19 -->
<g id="node20" class="node">
<title>19</title>
<path fill="none" stroke="#56d8b9" stroke-width="2" d="M279.5,-506C279.5,-506 169.5,-506 169.5,-506 163.5,-506 157.5,-500 157.5,-494 157.5,-494 157.5,-444 157.5,-444 157.5,-438 163.5,-432 169.5,-432 169.5,-432 279.5,-432 279.5,-432 285.5,-432 291.5,-438 291.5,-444 291.5,-444 291.5,-494 291.5,-494 291.5,-500 285.5,-506 279.5,-506"/>
<text text-anchor="middle" x="224.5" y="-494" font-family="sans" font-size="10.00">write_caseconfig</text>
<text text-anchor="middle" x="224.5" y="-483" font-family="sans" font-size="10.00">dependency: A2</text>
<text text-anchor="middle" x="224.5" y="-472" font-family="sans" font-size="10.00">id: A3</text>
<text text-anchor="middle" x="224.5" y="-461" font-family="sans" font-size="10.00">pressure_outlet: 120000</text>
<text text-anchor="middle" x="224.5" y="-450" font-family="sans" font-size="10.00">velocity_inlet_u: 30</text>
<text text-anchor="middle" x="224.5" y="-439" font-family="sans" font-size="10.00">velocity_inlet_v: 40</text>
</g>
<!-- 19&#45;&gt;18 -->
<g id="edge26" class="edge">
<title>19&#45;&gt;18</title>
<path fill="none" stroke="grey" stroke-width="2" d="M218.81,-431.8C217.46,-423.23 216.04,-414.24 214.77,-406.16"/>
<polygon fill="grey" stroke="grey" stroke-width="2" points="218.21,-405.49 213.2,-396.16 211.3,-406.58 218.21,-405.49"/>
</g>
<!-- 20&#45;&gt;17 -->
<g id="edge25" class="edge">
<title>20&#45;&gt;17</title>
<path fill="none" stroke="grey" stroke-width="2" d="M171.25,-287.7C171.14,-279.98 171.01,-270.71 170.89,-262.11"/>
<polygon fill="grey" stroke="grey" stroke-width="2" points="174.39,-262.05 170.74,-252.1 167.39,-262.15 174.39,-262.05"/>
</g>
<!-- 21&#45;&gt;0 -->
<g id="edge4" class="edge">
<title>21&#45;&gt;0</title>
<path fill="none" stroke="grey" stroke-width="2" d="M530.8,-76.32C503.35,-64.61 462.48,-47.16 433.04,-34.6"/>
<polygon fill="grey" stroke="grey" stroke-width="2" points="434.1,-31.24 423.53,-30.54 431.35,-37.68 434.1,-31.24"/>
</g>
<!-- 22&#45;&gt;0 -->
<g id="edge5" class="edge">
<title>22&#45;&gt;0</title>
<path fill="none" stroke="grey" stroke-width="2" d="M330.25,-71.7C341.34,-62.88 354.97,-52.03 366.99,-42.47"/>
<polygon fill="grey" stroke="grey" stroke-width="2" points="369.35,-45.07 375,-36.1 364.99,-39.59 369.35,-45.07"/>
</g>
<!-- 23&#45;&gt;0 -->
<g id="edge6" class="edge">
<title>23&#45;&gt;0</title>
<path fill="none" stroke="grey" stroke-width="2" d="M162.1,-75.44C165.24,-74.2 168.42,-73.03 171.5,-72 236.33,-50.43 314.43,-34.11 359.49,-25.6"/>
<polygon fill="grey" stroke="grey" stroke-width="2" points="360.21,-29.02 369.4,-23.75 358.92,-22.14 360.21,-29.02"/>
</g>
<!-- 24 -->
<g id="node25" class="node">
<title>24</title>
<path fill="none" stroke="#56d0d8" stroke-width="2" d="M533,-324C533,-324 472,-324 472,-324 466,-324 460,-318 460,-312 460,-312 460,-300 460,-300 460,-294 466,-288 472,-288 472,-288 533,-288 533,-288 539,-288 545,-294 545,-300 545,-300 545,-312 545,-312 545,-318 539,-324 533,-324"/>
<text text-anchor="middle" x="502.5" y="-303.5" font-family="sans" font-size="10.00">plot_residuals</text>
</g>
<!-- 24&#45;&gt;0 -->
<g id="edge7" class="edge">
<title>24&#45;&gt;0</title>
<path fill="none" stroke="grey" stroke-width="2" d="M503.65,-287.79C505.56,-247.16 505.65,-143.33 463.5,-72 455.91,-59.16 443.94,-48.22 432.21,-39.68"/>
<polygon fill="grey" stroke="grey" stroke-width="2" points="433.99,-36.66 423.77,-33.89 430.03,-42.44 433.99,-36.66"/>
</g>
<!-- 25&#45;&gt;24 -->
<g id="edge33" class="edge">
<title>25&#45;&gt;24</title>
<path fill="none" stroke="grey" stroke-width="2" d="M502.5,-450.77C502.5,-422.93 502.5,-367.81 502.5,-334.5"/>
<polygon fill="grey" stroke="grey" stroke-width="2" points="506,-334.11 502.5,-324.11 499,-334.11 506,-334.11"/>
</g>
<!-- 26 -->
<g id="node27" class="node">
<title>26</title>
<path fill="none" stroke="#56d0d8" stroke-width="2" d="M448,-252C448,-252 387,-252 387,-252 381,-252 375,-246 375,-240 375,-240 375,-228 375,-228 375,-222 381,-216 387,-216 387,-216 448,-216 448,-216 454,-216 460,-222 460,-228 460,-228 460,-240 460,-240 460,-246 454,-252 448,-252"/>
<text text-anchor="middle" x="417.5" y="-231.5" font-family="sans" font-size="10.00">plot_residuals</text>
</g>
<!-- 26&#45;&gt;0 -->
<g id="edge8" class="edge">
<title>26&#45;&gt;0</title>
<path fill="none" stroke="grey" stroke-width="2" d="M426.27,-215.95C440.47,-185.89 465.05,-121.93 445.5,-72 441.3,-61.28 433.81,-51.43 425.92,-43.2"/>
<polygon fill="grey" stroke="grey" stroke-width="2" points="428.26,-40.59 418.65,-36.13 423.38,-45.61 428.26,-40.59"/>
</g>
<!-- 27&#45;&gt;26 -->
<g id="edge35" class="edge">
<title>27&#45;&gt;26</title>
<path fill="none" stroke="grey" stroke-width="2" d="M405.46,-287.7C407.22,-279.98 409.34,-270.71 411.3,-262.11"/>
<polygon fill="grey" stroke="grey" stroke-width="2" points="414.77,-262.63 413.59,-252.1 407.95,-261.07 414.77,-262.63"/>
</g>
<!-- 28 -->
<g id="node29" class="node">
<title>28</title>
<path fill="none" stroke="#56d0d8" stroke-width="2" d="M73,-108C73,-108 12,-108 12,-108 6,-108 0,-102 0,-96 0,-96 0,-84 0,-84 0,-78 6,-72 12,-72 12,-72 73,-72 73,-72 79,-72 85,-78 85,-84 85,-84 85,-96 85,-96 85,-102 79,-108 73,-108"/>
<text text-anchor="middle" x="42.5" y="-87.5" font-family="sans" font-size="10.00">plot_residuals</text>
</g>
<!-- 28&#45;&gt;0 -->
<g id="edge9" class="edge">
<title>28&#45;&gt;0</title>
<path fill="none" stroke="grey" stroke-width="2" d="M85.22,-74.25C88.01,-73.44 90.79,-72.69 93.5,-72 188.06,-48.11 301.91,-31.33 359.4,-23.68"/>
<polygon fill="grey" stroke="grey" stroke-width="2" points="360.01,-27.13 369.47,-22.36 359.1,-20.19 360.01,-27.13"/>
</g>
<!-- 29&#45;&gt;28 -->
<g id="edge37" class="edge">
<title>29&#45;&gt;28</title>
<path fill="none" stroke="grey" stroke-width="2" d="M53.04,-143.7C51.5,-135.98 49.64,-126.71 47.92,-118.11"/>
<polygon fill="grey" stroke="grey" stroke-width="2" points="51.31,-117.22 45.92,-108.1 44.45,-118.6 51.31,-117.22"/>
</g>
</g>
</svg>
